<?xml version="1.0" encoding="iso-8859-1"?>
<!-- Generator: Adobe Illustrator 24.3.0, SVG Export Plug-In . SVG Version: 6.00 Build 0)  -->
<svg version="1.1" id="Layer_1" xmlns="http://www.w3.org/2000/svg" xmlns:xlink="http://www.w3.org/1999/xlink" x="0px" y="0px"
	 viewBox="0 0 500 500" style="enable-background:new 0 0 500 500;" xml:space="preserve">
<g id="watermark_1_">
	<g>
		<g id="watermark" style="opacity:0.61;">
			<g>
				<g>
					<g>
						<g>
							<polygon style="fill:#FFFFFF;" points="213.765,461.172 208.204,474.017 205.268,474.017 199.726,461.172 202.938,461.172 
								206.846,470.347 210.81,461.172 							"/>
						</g>
						<g>
							<path style="fill:#FFFFFF;" d="M223.507,469.741h-7.469c0.275,1.23,1.321,1.982,2.826,1.982c1.046,0,1.798-0.312,2.477-0.954
								l1.523,1.651c-0.917,1.046-2.294,1.597-4.074,1.597c-3.413,0-5.634-2.147-5.634-5.083c0-2.954,2.257-5.083,5.267-5.083
								c2.899,0,5.138,1.945,5.138,5.12C223.562,469.191,223.526,469.503,223.507,469.741 M216.002,468.071h4.863
								c-0.202-1.248-1.138-2.055-2.422-2.055C217.139,466.016,216.204,466.805,216.002,468.071"/>
						</g>
						<g>
							<path style="fill:#FFFFFF;" d="M224.735,468.934c0-2.973,2.294-5.083,5.505-5.083c2.074,0,3.707,0.899,4.423,2.514
								l-2.22,1.193c-0.532-0.936-1.321-1.358-2.221-1.358c-1.45,0-2.587,1.009-2.587,2.734c0,1.725,1.138,2.734,2.587,2.734
								c0.899,0,1.688-0.404,2.221-1.358l2.22,1.211c-0.716,1.578-2.349,2.495-4.423,2.495
								C227.029,474.017,224.735,471.907,224.735,468.934"/>
						</g>
						<g>
							<path style="fill:#FFFFFF;" d="M242.828,473.393c-0.587,0.422-1.45,0.624-2.331,0.624c-2.33,0-3.688-1.193-3.688-3.542
								v-4.055h-1.523v-2.202h1.523v-2.404h2.863v2.404h2.459v2.202h-2.459v4.019c0,0.844,0.458,1.303,1.229,1.303
								c0.422,0,0.844-0.128,1.156-0.367L242.828,473.393z"/>
						</g>
					</g>
					<g>
						<path style="fill:#FFFFFF;" d="M262.474,463.997v2.643c-0.238-0.018-0.422-0.037-0.642-0.037
							c-1.578,0-2.624,0.862-2.624,2.753v4.661h-2.863v-9.873h2.734v1.303C259.776,464.493,260.951,463.997,262.474,463.997"/>
					</g>
					<g>
						<path style="fill:#FFFFFF;" d="M263.299,472.53l1.009-2.239c1.083,0.789,2.697,1.339,4.239,1.339
							c1.762,0,2.477-0.587,2.477-1.376c0-2.404-7.469-0.752-7.469-5.524c0-2.184,1.762-4,5.413-4c1.615,0,3.267,0.385,4.459,1.138
							l-0.918,2.257c-1.193-0.679-2.422-1.009-3.56-1.009c-1.761,0-2.44,0.66-2.44,1.468c0,2.367,7.468,0.734,7.468,5.45
							c0,2.147-1.78,3.982-5.45,3.982C266.492,474.017,264.437,473.411,263.299,472.53"/>
					</g>
					<g>
						<path style="fill:#FFFFFF;" d="M285.428,469.741h-7.469c0.275,1.23,1.321,1.982,2.826,1.982c1.046,0,1.798-0.312,2.477-0.954
							l1.523,1.651c-0.918,1.046-2.294,1.597-4.074,1.597c-3.413,0-5.634-2.147-5.634-5.083c0-2.954,2.257-5.083,5.267-5.083
							c2.9,0,5.138,1.945,5.138,5.12C285.484,469.191,285.447,469.503,285.428,469.741 M277.923,468.071h4.863
							c-0.202-1.248-1.138-2.055-2.422-2.055C279.061,466.016,278.125,466.805,277.923,468.071"/>
					</g>
					<g>
						<path style="fill:#FFFFFF;" d="M297.007,469.741h-7.469c0.275,1.23,1.321,1.982,2.826,1.982c1.046,0,1.798-0.312,2.477-0.954
							l1.523,1.651c-0.918,1.046-2.294,1.597-4.074,1.597c-3.413,0-5.634-2.147-5.634-5.083c0-2.954,2.257-5.083,5.267-5.083
							c2.899,0,5.138,1.945,5.138,5.12C297.062,469.191,297.025,469.503,297.007,469.741 M289.501,468.071h4.863
							c-0.202-1.248-1.138-2.055-2.422-2.055C290.639,466.016,289.703,466.805,289.501,468.071"/>
					</g>
					<g>
						<polygon style="fill:#FFFFFF;" points="303.208,470.145 301.831,471.503 301.831,474.017 298.969,474.017 298.969,460.401 
							301.831,460.401 301.831,468.108 306.016,464.144 309.429,464.144 305.318,468.328 309.796,474.017 306.327,474.017 						"/>
					</g>
					<g>
						<path style="fill:#FFFFFF;" d="M256.601,475.359L256.601,475.359l-2.86-2.86c-0.435,0.508-0.953,0.943-1.534,1.284
							c-0.092,0.069-0.186,0.136-0.283,0.199l3.027,3.027c0.456,0.456,1.195,0.456,1.65,0
							C257.057,476.554,257.057,475.815,256.601,475.359"/>
					</g>
					<g>
						<path style="fill:#FFFFFF;" d="M249.984,463.244c0.221-0.173,0.495-0.281,0.797-0.281c0.042,0,0.083,0.002,0.124,0.006
							c-0.214-0.156-0.478-0.249-0.764-0.249c-0.395,0-0.744,0.18-0.981,0.458c-0.051,0-0.1,0.006-0.151,0.008
							c0.039-0.077,0.064-0.162,0.064-0.255c0-0.234-0.143-0.434-0.346-0.519c0.087,0.126,0.138,0.279,0.138,0.445
							c0,0.122-0.031,0.237-0.081,0.341c-2.811,0.201-5.03,2.539-5.03,5.4c0,2.993,2.426,5.42,5.42,5.42
							c2.993,0,5.42-2.426,5.42-5.42C254.595,465.879,252.593,463.635,249.984,463.244 M247.983,464.656
							c0.435,0,0.844,0.112,1.199,0.309c0.374-0.245,0.82-0.387,1.299-0.387c0.711,0,1.348,0.312,1.784,0.806
							c-0.435-0.379-1.004-0.61-1.627-0.61c-0.449,0-0.87,0.12-1.234,0.329c-0.079,0.046-0.156,0.096-0.229,0.15
							c-0.065-0.048-0.133-0.093-0.204-0.134c-0.369-0.219-0.8-0.344-1.26-0.344c-0.3,0-0.588,0.054-0.854,0.152
							C247.196,464.754,247.578,464.656,247.983,464.656 M251.772,469.098c0.115,0.305,0.181,0.634,0.181,0.979
							c0,1.534-1.244,2.777-2.778,2.777c-1.534,0-2.777-1.243-2.777-2.777c0-0.345,0.066-0.674,0.181-0.979
							c-0.62-0.382-1.035-1.064-1.035-1.846c0-1.197,0.971-2.168,2.168-2.168c0.565,0,1.078,0.218,1.463,0.572
							c0.386-0.354,0.899-0.572,1.464-0.572c1.197,0,2.168,0.971,2.168,2.168C252.807,468.034,252.392,468.716,251.772,469.098"/>
					</g>
					<g>
						<path style="fill:#FFFFFF;" d="M251.666,467.061c0,0.497-0.404,0.901-0.901,0.901c-0.497,0-0.901-0.404-0.901-0.901
							s0.404-0.901,0.901-0.901c0.101,0,0.197,0.017,0.287,0.047c-0.03,0.062-0.045,0.132-0.045,0.204
							c0,0.273,0.221,0.494,0.494,0.494c0.05,0,0.099-0.008,0.146-0.022C251.66,466.941,251.666,467,251.666,467.061"/>
					</g>
					<g>
						<path style="fill:#FFFFFF;" d="M248.255,467.061c0,0.376-0.305,0.681-0.681,0.681c-0.376,0-0.681-0.305-0.681-0.681
							s0.305-0.681,0.681-0.681c0.076,0,0.149,0.013,0.217,0.035c-0.023,0.047-0.034,0.1-0.034,0.155
							c0,0.206,0.167,0.374,0.374,0.374c0.038,0,0.075-0.006,0.11-0.017C248.25,466.97,248.255,467.015,248.255,467.061"/>
					</g>
					<g>
						<g>
							<g>
								<rect x="242.908" y="467.83" style="fill:#FFFFFF;" width="0.616" height="0.616"/>
							</g>
							<g>
								<rect x="254.827" y="467.83" style="fill:#FFFFFF;" width="0.616" height="0.616"/>
							</g>
							<g>
								<path style="fill:#FFFFFF;" d="M255.205,468.082h-0.14c0-3.248-2.642-5.89-5.89-5.89c-3.248,0-5.89,2.642-5.89,5.89h-0.14
									c0-1.611,0.627-3.125,1.766-4.264c1.139-1.139,2.653-1.766,4.264-1.766c1.611,0,3.125,0.627,4.264,1.766
									C254.578,464.957,255.205,466.471,255.205,468.082"/>
							</g>
						</g>
						<g>
							<rect x="248.868" y="461.814" style="fill:#FFFFFF;" width="0.616" height="0.616"/>
						</g>
						<g>
							<rect x="244.95" y="462.052" style="fill:#FFFFFF;" width="8.45" height="0.14"/>
						</g>
						<g>
							<path style="fill:#FFFFFF;" d="M245.174,462.15c0,0.108-0.088,0.196-0.196,0.196c-0.108,0-0.196-0.088-0.196-0.196
								c0-0.108,0.088-0.196,0.196-0.196C245.086,461.954,245.174,462.042,245.174,462.15"/>
						</g>
						<g>
							<path style="fill:#FFFFFF;" d="M253.596,462.15c0,0.108-0.088,0.196-0.196,0.196c-0.108,0-0.196-0.088-0.196-0.196
								c0-0.108,0.088-0.196,0.196-0.196C253.509,461.954,253.596,462.042,253.596,462.15"/>
						</g>
					</g>
				</g>
				<g>
					<path style="fill:#FFFFFF;" d="M314.356,473.409c0,1.559-2.364,1.559-2.364,0C311.993,471.851,314.356,471.851,314.356,473.409
						z"/>
				</g>
				<g>
					<g>
						<g>
							<path style="fill:#FFFFFF;" d="M161.739,466.549l1.772,6.088l1.855-6.088h2.215l-2.823,8.14h-2.33l-0.837-2.396l-0.722-2.708
								l-0.722,2.708l-0.837,2.396h-2.33l-2.839-8.14h2.231l1.855,6.088l1.756-6.088H161.739z"/>
						</g>
						<g>
							<path style="fill:#FFFFFF;" d="M176.713,466.549l1.772,6.088l1.855-6.088h2.215l-2.823,8.14h-2.33l-0.837-2.396l-0.722-2.708
								l-0.722,2.708l-0.837,2.396h-2.33l-2.839-8.14h2.231l1.855,6.088l1.756-6.088H176.713z"/>
						</g>
						<g>
							<path style="fill:#FFFFFF;" d="M191.687,466.549l1.772,6.088l1.855-6.088h2.215l-2.823,8.14h-2.33l-0.837-2.396l-0.722-2.708
								l-0.722,2.708l-0.837,2.396h-2.33l-2.839-8.14h2.231l1.855,6.088l1.756-6.088H191.687z"/>
						</g>
					</g>
					<g>
						<path style="fill:#FFFFFF;" d="M200.908,473.52c0,1.559-2.364,1.559-2.364,0C198.545,471.962,200.908,471.962,200.908,473.52z
							"/>
					</g>
					<g>
						<path style="fill:#FFFFFF;" d="M322.71,473.409c-0.935,0.919-1.919,1.28-3.117,1.28c-2.346,0-4.3-1.411-4.3-4.282
							s1.953-4.284,4.3-4.284c1.149,0,2.035,0.329,2.921,1.199l-1.264,1.329c-0.476-0.428-1.066-0.64-1.623-0.64
							c-1.346,0-2.33,0.985-2.33,2.396c0,1.542,1.05,2.362,2.297,2.362c0.64,0,1.28-0.18,1.772-0.672L322.71,473.409z"/>
					</g>
					<g>
						<path style="fill:#FFFFFF;" d="M331.805,470.472c0,2.33-1.591,4.217-4.217,4.217c-2.626,0-4.201-1.887-4.201-4.217
							c0-2.314,1.609-4.217,4.185-4.217C330.149,466.255,331.805,468.158,331.805,470.472z M325.389,470.472
							c0,1.231,0.739,2.38,2.199,2.38c1.46,0,2.199-1.149,2.199-2.38c0-1.215-0.854-2.396-2.199-2.396
							C326.144,468.077,325.389,469.258,325.389,470.472z"/>
					</g>
					<g>
						<path style="fill:#FFFFFF;" d="M338.572,474.689v-4.332c0-1.068-0.559-2.035-1.658-2.035c-1.082,0-1.722,0.967-1.722,2.035
							v4.332h-2.003v-8.107h1.855l0.148,0.985c0.426-0.82,1.362-1.116,2.133-1.116c0.969,0,1.937,0.394,2.396,1.51
							c0.723-1.149,1.658-1.478,2.708-1.478c2.297,0,3.43,1.412,3.43,3.84v4.365h-2.003v-4.365c0-1.066-0.442-1.97-1.526-1.97
							c-1.082,0-1.756,0.935-1.756,2.003v4.332H338.572z"/>
					</g>
				</g>
			</g>
		</g>
		<g style="opacity:0.61;">
			<g>
				<g>
					<path style="fill:#FFFFFF;" d="M345.988,431.299c-0.006-1.224-0.959-2.121-2.189-2.14c-0.924-0.014-0.832,0.12-0.834-0.867
						c-0.003-1.097-0.007-2.194,0.003-3.292c0.003-0.379-0.112-0.691-0.362-0.976c-2.342-2.668-4.678-5.342-7.019-8.011
						c-0.12-0.137-0.275-0.244-0.414-0.366c-6.214,0-12.427,0-18.641,0c-0.794,0.293-1.14,0.868-1.138,1.709
						c0.01,3.748,0.004,7.496,0.004,11.243c0,0.556-0.003,0.589-0.55,0.551c-1.497-0.102-2.516,0.986-2.497,2.492
						c0.044,3.476,0.013,6.953,0.014,10.429c0.001,1.58,0.867,2.443,2.45,2.449c0.582,0.002,0.582,0.002,0.582,0.6
						c0,2.219-0.001,4.438,0.001,6.657c0.001,1.192,0.58,1.771,1.768,1.771c8.013,0.001,16.027,0.001,24.04,0
						c1.168,0,1.755-0.583,1.757-1.745c0.002-2.256,0-4.512,0.001-6.768c0-0.512,0.002-0.511,0.52-0.515
						c0.271-0.002,0.541,0.008,0.809-0.058c0.996-0.246,1.69-1.044,1.694-2.069C346.003,438.696,346.005,434.997,345.988,431.299z
						 M317.537,417.162c5.337,0,10.674,0,16.01,0c0.548,0,0.554,0.007,0.554,0.561c0.001,2.243-0.001,4.486,0.001,6.73
						c0.001,0.811,0.249,1.059,1.06,1.059c1.91,0.001,3.821,0,5.731,0.001c0.458,0,0.479,0.021,0.481,0.483
						c0.003,0.887,0.002,1.775,0,2.662c-0.001,0.477-0.024,0.498-0.504,0.499c-3.895,0.001-7.79,0-11.684,0
						c-3.882,0-7.765,0-11.647,0c-0.55,0-0.552-0.001-0.552-0.561c-0.001-3.624-0.001-7.247,0-10.871
						C316.987,417.166,316.991,417.162,317.537,417.162z M340.822,451.579c-3.883,0.001-7.766,0-11.65,0c-3.871,0-7.742,0-11.613,0
						c-0.572,0-0.574-0.002-0.574-0.579c-0.001-1.997-0.001-3.994,0.001-5.991c0-0.464,0.023-0.486,0.478-0.487
						c7.803-0.001,15.607-0.001,23.41,0c0.478,0,0.499,0.02,0.499,0.503c0.002,1.997,0.001,3.994,0,5.991
						C341.375,451.574,341.37,451.579,340.822,451.579z"/>
				</g>
				<g>
					<g>
						<rect x="327.418" y="417.053" style="fill:#FFFFFF;" width="1.757" height="1.054"/>
					</g>
					<g>
						<rect x="325.662" y="418.107" style="fill:#FFFFFF;" width="1.757" height="1.054"/>
					</g>
					<g>
						<rect x="327.418" y="419.161" style="fill:#FFFFFF;" width="1.757" height="1.054"/>
					</g>
					<g>
						<rect x="325.662" y="420.215" style="fill:#FFFFFF;" width="1.757" height="1.054"/>
					</g>
					<g>
						<rect x="327.418" y="421.269" style="fill:#FFFFFF;" width="1.757" height="1.054"/>
					</g>
					<g>
						<rect x="325.662" y="422.323" style="fill:#FFFFFF;" width="1.757" height="1.054"/>
					</g>
					<g>
						<rect x="327.418" y="423.378" style="fill:#FFFFFF;" width="1.757" height="1.054"/>
					</g>
					<g>
						<rect x="325.662" y="424.432" style="fill:#FFFFFF;" width="1.757" height="1.054"/>
					</g>
					<g>
						<rect x="327.418" y="425.486" style="fill:#FFFFFF;" width="1.757" height="1.054"/>
					</g>
					<g>
						<rect x="325.662" y="426.54" style="fill:#FFFFFF;" width="1.757" height="1.054"/>
					</g>
					<g>
						<rect x="327.418" y="427.594" style="fill:#FFFFFF;" width="1.757" height="1.054"/>
					</g>
					<g>
						<rect x="325.662" y="428.648" style="fill:#FFFFFF;" width="1.757" height="1.054"/>
					</g>
				</g>
			</g>
			<g>
				<path style="fill:#FFFFFF;" d="M187.637,431.299c-0.006-1.224-0.959-2.121-2.189-2.14c-0.924-0.014-0.832,0.12-0.834-0.867
					c-0.003-1.097-0.007-2.194,0.003-3.292c0.003-0.379-0.112-0.691-0.362-0.976c-2.342-2.668-4.678-5.342-7.019-8.011
					c-0.12-0.137-0.275-0.244-0.414-0.366c-6.214,0-12.427,0-18.641,0c-0.794,0.293-1.14,0.868-1.138,1.709
					c0.01,3.748,0.004,7.496,0.004,11.243c0,0.556-0.003,0.589-0.55,0.551c-1.497-0.102-2.516,0.986-2.497,2.492
					c0.044,3.476,0.013,6.953,0.014,10.429c0.001,1.58,0.867,2.443,2.45,2.449c0.582,0.002,0.582,0.002,0.582,0.6
					c0,2.219-0.001,4.438,0.001,6.657c0.001,1.192,0.58,1.771,1.768,1.771c8.013,0.001,16.027,0.001,24.04,0
					c1.168,0,1.755-0.583,1.757-1.745c0.002-2.256,0-4.512,0.001-6.768c0-0.512,0.002-0.511,0.52-0.515
					c0.271-0.002,0.541,0.008,0.809-0.058c0.996-0.246,1.69-1.044,1.694-2.069C187.652,438.696,187.655,434.997,187.637,431.299z
					 M159.187,417.162c5.337,0,10.674,0,16.01,0c0.548,0,0.554,0.007,0.554,0.561c0.001,2.243-0.001,4.486,0.001,6.73
					c0.001,0.811,0.249,1.059,1.06,1.059c1.91,0.001,3.821,0,5.731,0.001c0.458,0,0.479,0.021,0.481,0.483
					c0.003,0.887,0.002,1.775,0,2.662c-0.001,0.477-0.024,0.498-0.504,0.499c-3.895,0.001-7.79,0-11.684,0
					c-3.882,0-7.765,0-11.647,0c-0.55,0-0.552-0.001-0.552-0.561c-0.001-3.624-0.001-7.247,0-10.871
					C158.636,417.166,158.64,417.162,159.187,417.162z M182.472,451.579c-3.883,0.001-7.766,0-11.65,0c-3.871,0-7.742,0-11.613,0
					c-0.572,0-0.574-0.002-0.574-0.579c-0.001-1.997-0.001-3.994,0.001-5.991c0-0.464,0.023-0.486,0.478-0.487
					c7.803-0.001,15.607-0.001,23.41,0c0.478,0,0.499,0.02,0.499,0.503c0.002,1.997,0.001,3.994,0,5.991
					C183.024,451.574,183.019,451.579,182.472,451.579z"/>
			</g>
			<g>
				<path style="fill:#FFFFFF;" d="M159.779,440.669v-7.897h2.779c0.375,0,0.726,0.061,1.053,0.182
					c0.327,0.121,0.612,0.292,0.855,0.513c0.242,0.221,0.434,0.483,0.573,0.789c0.14,0.305,0.21,0.642,0.21,1.009
					c0,0.375-0.07,0.715-0.21,1.02c-0.14,0.305-0.331,0.568-0.573,0.789c-0.243,0.221-0.528,0.392-0.855,0.513
					c-0.327,0.121-0.678,0.182-1.053,0.182h-1.29v2.901H159.779z M162.58,436.356c0.39,0,0.684-0.111,0.882-0.331
					c0.199-0.22,0.298-0.474,0.298-0.761c0-0.14-0.024-0.276-0.072-0.408c-0.048-0.132-0.121-0.248-0.221-0.347
					c-0.099-0.099-0.223-0.178-0.37-0.237c-0.147-0.059-0.32-0.089-0.518-0.089h-1.312v2.173H162.58z"/>
				<path style="fill:#FFFFFF;" d="M166.308,432.771h1.731l3.177,5.294h0.088l-0.088-1.522v-3.772h1.478v7.897h-1.566l-3.353-5.592
					h-0.088l0.088,1.522v4.07h-1.467V432.771z"/>
				<path style="fill:#FFFFFF;" d="M177.922,436.334h3.872c0.022,0.089,0.04,0.195,0.055,0.32c0.014,0.125,0.022,0.25,0.022,0.375
					c0,0.507-0.077,0.985-0.231,1.434c-0.154,0.449-0.397,0.849-0.728,1.202c-0.353,0.375-0.776,0.666-1.268,0.871
					c-0.493,0.206-1.055,0.309-1.688,0.309c-0.574,0-1.114-0.103-1.622-0.309c-0.507-0.206-0.948-0.492-1.323-0.86
					c-0.375-0.367-0.673-0.803-0.894-1.307c-0.221-0.504-0.331-1.053-0.331-1.649c0-0.595,0.11-1.145,0.331-1.649
					c0.221-0.504,0.518-0.939,0.894-1.307c0.375-0.367,0.816-0.654,1.323-0.86c0.507-0.206,1.048-0.309,1.622-0.309
					c0.64,0,1.211,0.11,1.715,0.331c0.504,0.221,0.935,0.526,1.296,0.915l-1.025,1.004c-0.258-0.272-0.544-0.48-0.861-0.623
					c-0.316-0.143-0.695-0.215-1.136-0.215c-0.361,0-0.703,0.065-1.026,0.193c-0.324,0.129-0.607,0.311-0.85,0.546
					c-0.242,0.235-0.436,0.52-0.579,0.855c-0.143,0.335-0.215,0.708-0.215,1.119c0,0.412,0.072,0.785,0.215,1.12
					c0.143,0.335,0.338,0.62,0.584,0.855c0.246,0.235,0.531,0.418,0.855,0.546c0.323,0.129,0.669,0.193,1.037,0.193
					c0.419,0,0.773-0.061,1.064-0.182c0.29-0.121,0.538-0.278,0.744-0.469c0.148-0.132,0.275-0.3,0.381-0.502
					c0.106-0.202,0.189-0.428,0.248-0.678h-2.482V436.334z"/>
			</g>
			<g>
				<path style="fill:#FFFFFF;" d="M224.019,431.299c-0.006-1.224-0.959-2.121-2.189-2.14c-0.924-0.014-0.832,0.12-0.834-0.867
					c-0.003-1.097-0.007-2.194,0.003-3.292c0.003-0.379-0.112-0.691-0.362-0.976c-2.342-2.668-4.678-5.342-7.019-8.011
					c-0.12-0.137-0.275-0.244-0.414-0.366c-6.214,0-12.427,0-18.641,0c-0.794,0.293-1.14,0.868-1.138,1.709
					c0.01,3.748,0.004,7.496,0.004,11.243c0,0.556-0.003,0.589-0.55,0.551c-1.497-0.102-2.516,0.986-2.497,2.492
					c0.044,3.476,0.013,6.953,0.014,10.429c0.001,1.58,0.867,2.443,2.45,2.449c0.582,0.002,0.582,0.002,0.582,0.6
					c0,2.219-0.001,4.438,0.001,6.657c0.001,1.192,0.58,1.771,1.768,1.771c8.013,0.001,16.027,0.001,24.04,0
					c1.168,0,1.755-0.583,1.757-1.745c0.002-2.256,0-4.512,0.001-6.768c0-0.512,0.002-0.511,0.52-0.515
					c0.271-0.002,0.541,0.008,0.809-0.058c0.997-0.246,1.69-1.044,1.694-2.069C224.034,438.696,224.036,434.997,224.019,431.299z
					 M195.568,417.162c5.337,0,10.674,0,16.01,0c0.548,0,0.554,0.007,0.554,0.561c0.001,2.243-0.001,4.486,0.001,6.73
					c0.001,0.811,0.249,1.059,1.06,1.059c1.91,0.001,3.821,0,5.731,0.001c0.458,0,0.479,0.021,0.481,0.483
					c0.003,0.887,0.002,1.775,0,2.662c-0.001,0.477-0.024,0.498-0.504,0.499c-3.895,0.001-7.79,0-11.684,0
					c-3.882,0-7.765,0-11.647,0c-0.55,0-0.552-0.001-0.552-0.561c-0.001-3.624-0.001-7.247,0-10.871
					C195.018,417.166,195.022,417.162,195.568,417.162z M218.854,451.579c-3.883,0.001-7.766,0-11.65,0c-3.871,0-7.742,0-11.613,0
					c-0.572,0-0.574-0.002-0.574-0.579c-0.001-1.997-0.001-3.994,0.001-5.991c0-0.464,0.023-0.486,0.478-0.487
					c7.803-0.001,15.607-0.001,23.41,0c0.478,0,0.499,0.02,0.499,0.503c0.002,1.997,0.001,3.994,0,5.991
					C219.406,451.574,219.401,451.579,218.854,451.579z"/>
			</g>
			<g>
				<path style="fill:#FFFFFF;" d="M205.111,432.771h1.699l2.967,7.897h-1.644l-0.651-1.886h-3.044l-0.651,1.886h-1.643
					L205.111,432.771z M206.997,437.415l-0.706-1.974l-0.287-0.96h-0.088l-0.287,0.96l-0.706,1.974H206.997z"/>
				<path style="fill:#FFFFFF;" d="M211.331,434.536c-0.125,0-0.245-0.024-0.359-0.072c-0.114-0.048-0.213-0.114-0.298-0.199
					c-0.084-0.084-0.151-0.182-0.198-0.292c-0.048-0.11-0.072-0.232-0.072-0.364s0.024-0.254,0.072-0.364
					c0.048-0.11,0.114-0.208,0.198-0.292c0.084-0.084,0.184-0.151,0.298-0.198c0.114-0.048,0.233-0.072,0.359-0.072
					c0.257,0,0.478,0.09,0.662,0.27c0.184,0.181,0.276,0.399,0.276,0.656s-0.092,0.476-0.276,0.656
					C211.809,434.446,211.589,434.536,211.331,434.536z M210.615,440.669v-5.404h1.445v5.404H210.615z"/>
			</g>
			<g>
				<path style="fill:#FFFFFF;" d="M261.044,431.299c-0.006-1.224-0.959-2.121-2.189-2.14c-0.924-0.014-0.832,0.12-0.834-0.867
					c-0.003-1.097-0.007-2.194,0.003-3.292c0.003-0.379-0.112-0.691-0.362-0.976c-2.342-2.668-4.678-5.342-7.019-8.011
					c-0.12-0.137-0.275-0.244-0.414-0.366c-6.214,0-12.427,0-18.641,0c-0.794,0.293-1.14,0.868-1.138,1.709
					c0.01,3.748,0.004,7.496,0.004,11.243c0,0.556-0.003,0.589-0.55,0.551c-1.497-0.102-2.516,0.986-2.497,2.492
					c0.044,3.476,0.013,6.953,0.014,10.429c0.001,1.58,0.867,2.443,2.45,2.449c0.582,0.002,0.582,0.002,0.582,0.6
					c0,2.219-0.001,4.438,0.001,6.657c0.001,1.192,0.58,1.771,1.768,1.771c8.013,0.001,16.027,0.001,24.04,0
					c1.168,0,1.755-0.583,1.757-1.745c0.002-2.256,0-4.512,0.001-6.768c0-0.512,0.002-0.511,0.52-0.515
					c0.271-0.002,0.541,0.008,0.809-0.058c0.996-0.246,1.69-1.044,1.694-2.069C261.059,438.696,261.061,434.997,261.044,431.299z
					 M232.593,417.162c5.337,0,10.674,0,16.01,0c0.548,0,0.554,0.007,0.554,0.561c0.001,2.243-0.001,4.486,0.001,6.73
					c0.001,0.811,0.249,1.059,1.06,1.059c1.91,0.001,3.821,0,5.731,0.001c0.458,0,0.479,0.021,0.481,0.483
					c0.003,0.887,0.002,1.775,0,2.662c-0.001,0.477-0.024,0.498-0.504,0.499c-3.895,0.001-7.79,0-11.684,0
					c-3.882,0-7.765,0-11.647,0c-0.55,0-0.552-0.001-0.552-0.561c-0.001-3.624-0.001-7.247,0-10.871
					C232.042,417.166,232.047,417.162,232.593,417.162z M255.878,451.579c-3.883,0.001-7.766,0-11.65,0c-3.871,0-7.742,0-11.613,0
					c-0.572,0-0.574-0.002-0.574-0.579c-0.001-1.997-0.001-3.994,0.001-5.991c0-0.464,0.023-0.486,0.478-0.487
					c7.803-0.001,15.607-0.001,23.41,0c0.478,0,0.499,0.02,0.499,0.503c0.002,1.997,0.001,3.994,0,5.991
					C256.431,451.574,256.426,451.579,255.878,451.579z"/>
			</g>
			<g>
				<path style="fill:#FFFFFF;" d="M236.361,440.845c-0.338,0-0.662-0.048-0.971-0.143c-0.309-0.095-0.592-0.239-0.849-0.43
					c-0.257-0.191-0.481-0.425-0.673-0.7c-0.191-0.276-0.342-0.597-0.452-0.965l1.401-0.551c0.103,0.397,0.283,0.726,0.54,0.987
					c0.257,0.261,0.596,0.392,1.015,0.392c0.154,0,0.303-0.02,0.447-0.061c0.143-0.04,0.272-0.099,0.386-0.176
					s0.204-0.175,0.27-0.292c0.066-0.118,0.099-0.254,0.099-0.408c0-0.147-0.026-0.279-0.077-0.397
					c-0.051-0.117-0.138-0.227-0.259-0.331c-0.121-0.103-0.28-0.202-0.475-0.298c-0.195-0.095-0.435-0.195-0.722-0.298l-0.485-0.176
					c-0.213-0.073-0.429-0.173-0.645-0.298c-0.217-0.125-0.413-0.276-0.59-0.452c-0.177-0.176-0.322-0.384-0.436-0.623
					c-0.114-0.239-0.171-0.509-0.171-0.81c0-0.309,0.06-0.597,0.182-0.866c0.121-0.268,0.294-0.503,0.518-0.706
					c0.224-0.202,0.492-0.36,0.805-0.474s0.66-0.171,1.042-0.171c0.397,0,0.74,0.053,1.031,0.16
					c0.291,0.107,0.537,0.243,0.739,0.408c0.202,0.165,0.366,0.348,0.491,0.546c0.125,0.199,0.217,0.386,0.276,0.563l-1.312,0.551
					c-0.074-0.221-0.208-0.419-0.402-0.596c-0.195-0.176-0.462-0.265-0.8-0.265c-0.324,0-0.592,0.075-0.805,0.226
					c-0.213,0.151-0.32,0.348-0.32,0.59c0,0.235,0.103,0.436,0.309,0.601c0.206,0.165,0.533,0.325,0.982,0.48l0.497,0.165
					c0.316,0.111,0.605,0.237,0.866,0.381c0.261,0.143,0.485,0.314,0.673,0.513c0.187,0.199,0.331,0.425,0.43,0.678
					c0.1,0.254,0.149,0.546,0.149,0.877c0,0.412-0.083,0.767-0.248,1.064c-0.165,0.298-0.377,0.542-0.634,0.734
					c-0.258,0.191-0.548,0.335-0.872,0.43C236.986,440.797,236.67,440.845,236.361,440.845z"/>
				<path style="fill:#FFFFFF;" d="M239.516,432.771h1.61l1.633,4.754l0.287,1.015h0.088l0.309-1.015l1.699-4.754h1.61l-2.879,7.897
					h-1.566L239.516,432.771z"/>
				<path style="fill:#FFFFFF;" d="M251.097,436.334h3.871c0.022,0.089,0.04,0.195,0.055,0.32c0.015,0.125,0.023,0.25,0.023,0.375
					c0,0.507-0.078,0.985-0.232,1.434c-0.154,0.449-0.397,0.849-0.728,1.202c-0.353,0.375-0.775,0.666-1.268,0.871
					c-0.493,0.206-1.055,0.309-1.688,0.309c-0.574,0-1.114-0.103-1.621-0.309c-0.507-0.206-0.949-0.492-1.324-0.86
					c-0.375-0.367-0.673-0.803-0.894-1.307c-0.22-0.504-0.331-1.053-0.331-1.649c0-0.595,0.11-1.145,0.331-1.649
					c0.221-0.504,0.518-0.939,0.894-1.307c0.375-0.367,0.816-0.654,1.324-0.86c0.507-0.206,1.047-0.309,1.621-0.309
					c0.64,0,1.211,0.11,1.715,0.331c0.504,0.221,0.936,0.526,1.296,0.915l-1.026,1.004c-0.257-0.272-0.544-0.48-0.861-0.623
					c-0.316-0.143-0.694-0.215-1.136-0.215c-0.36,0-0.702,0.065-1.026,0.193c-0.323,0.129-0.607,0.311-0.849,0.546
					c-0.243,0.235-0.436,0.52-0.579,0.855c-0.143,0.335-0.215,0.708-0.215,1.119c0,0.412,0.072,0.785,0.215,1.12
					c0.143,0.335,0.338,0.62,0.585,0.855c0.246,0.235,0.531,0.418,0.854,0.546c0.324,0.129,0.669,0.193,1.037,0.193
					c0.419,0,0.774-0.061,1.064-0.182c0.29-0.121,0.539-0.278,0.745-0.469c0.147-0.132,0.274-0.3,0.38-0.502
					c0.107-0.202,0.189-0.428,0.248-0.678h-2.482V436.334z"/>
			</g>
			<g>
				<path style="fill:#FFFFFF;" d="M297.3,431.299c-0.006-1.224-0.959-2.121-2.189-2.14c-0.924-0.014-0.832,0.12-0.834-0.867
					c-0.003-1.097-0.007-2.194,0.003-3.292c0.003-0.379-0.112-0.691-0.362-0.976c-2.342-2.668-4.678-5.342-7.019-8.011
					c-0.12-0.137-0.275-0.244-0.414-0.366c-6.214,0-12.427,0-18.641,0c-0.794,0.293-1.14,0.868-1.138,1.709
					c0.01,3.748,0.004,7.496,0.004,11.243c0,0.556-0.003,0.589-0.55,0.551c-1.497-0.102-2.516,0.986-2.497,2.492
					c0.044,3.476,0.013,6.953,0.014,10.429c0.001,1.58,0.867,2.443,2.45,2.449c0.582,0.002,0.582,0.002,0.582,0.6
					c0,2.219-0.001,4.438,0.001,6.657c0.001,1.192,0.58,1.771,1.768,1.771c8.013,0.001,16.027,0.001,24.04,0
					c1.168,0,1.755-0.583,1.757-1.745c0.002-2.256,0-4.512,0.001-6.768c0-0.512,0.002-0.511,0.52-0.515
					c0.271-0.002,0.541,0.008,0.809-0.058c0.996-0.246,1.69-1.044,1.694-2.069C297.315,438.696,297.318,434.997,297.3,431.299z
					 M268.85,417.162c5.337,0,10.674,0,16.01,0c0.548,0,0.554,0.007,0.554,0.561c0.001,2.243-0.001,4.486,0.001,6.73
					c0.001,0.811,0.249,1.059,1.06,1.059c1.91,0.001,3.821,0,5.731,0.001c0.458,0,0.479,0.021,0.481,0.483
					c0.003,0.887,0.002,1.775,0,2.662c-0.001,0.477-0.024,0.498-0.504,0.499c-3.895,0.001-7.79,0-11.684,0
					c-3.882,0-7.765,0-11.647,0c-0.55,0-0.552-0.001-0.552-0.561c-0.001-3.624-0.001-7.247,0-10.871
					C268.299,417.166,268.303,417.162,268.85,417.162z M292.135,451.579c-3.883,0.001-7.766,0-11.65,0c-3.871,0-7.742,0-11.613,0
					c-0.572,0-0.574-0.002-0.574-0.579c-0.001-1.997-0.001-3.994,0.001-5.991c0-0.464,0.023-0.486,0.478-0.487
					c7.803-0.001,15.607-0.001,23.41,0c0.478,0,0.499,0.02,0.499,0.503c0.001,1.997,0.001,3.994,0,5.991
					C292.687,451.574,292.682,451.579,292.135,451.579z"/>
			</g>
			<g>
				<path style="fill:#FFFFFF;" d="M272.966,434.183v1.831h3.165v1.412h-3.165v1.831h3.518v1.412h-5.007v-7.897h5.007v1.412H272.966
					z"/>
				<path style="fill:#FFFFFF;" d="M277.852,440.669v-7.897h2.779c0.375,0,0.726,0.061,1.053,0.182
					c0.327,0.121,0.612,0.292,0.855,0.513c0.243,0.221,0.434,0.483,0.574,0.789c0.14,0.305,0.209,0.642,0.209,1.009
					c0,0.375-0.07,0.715-0.209,1.02c-0.14,0.305-0.331,0.568-0.574,0.789c-0.243,0.221-0.528,0.392-0.855,0.513
					c-0.327,0.121-0.678,0.182-1.053,0.182h-1.29v2.901H277.852z M280.653,436.356c0.389,0,0.684-0.111,0.882-0.331
					c0.199-0.22,0.298-0.474,0.298-0.761c0-0.14-0.024-0.276-0.072-0.408c-0.048-0.132-0.121-0.248-0.221-0.347
					c-0.099-0.099-0.222-0.178-0.37-0.237c-0.147-0.059-0.32-0.089-0.518-0.089h-1.312v2.173H280.653z"/>
				<path style="fill:#FFFFFF;" d="M286.797,440.845c-0.338,0-0.662-0.048-0.971-0.143c-0.309-0.095-0.592-0.239-0.849-0.43
					c-0.257-0.191-0.482-0.425-0.673-0.7c-0.191-0.276-0.342-0.597-0.452-0.965l1.401-0.551c0.103,0.397,0.283,0.726,0.541,0.987
					c0.257,0.261,0.595,0.392,1.015,0.392c0.154,0,0.303-0.02,0.447-0.061c0.143-0.04,0.272-0.099,0.386-0.176
					c0.114-0.077,0.204-0.175,0.27-0.292c0.066-0.118,0.1-0.254,0.1-0.408c0-0.147-0.026-0.279-0.077-0.397
					c-0.051-0.117-0.138-0.227-0.259-0.331c-0.121-0.103-0.279-0.202-0.474-0.298c-0.195-0.095-0.436-0.195-0.723-0.298
					l-0.485-0.176c-0.213-0.073-0.428-0.173-0.645-0.298c-0.217-0.125-0.414-0.276-0.59-0.452c-0.176-0.176-0.322-0.384-0.436-0.623
					c-0.114-0.239-0.171-0.509-0.171-0.81c0-0.309,0.061-0.597,0.182-0.866c0.121-0.268,0.294-0.503,0.518-0.706
					c0.224-0.202,0.493-0.36,0.805-0.474c0.312-0.114,0.66-0.171,1.042-0.171c0.397,0,0.741,0.053,1.031,0.16
					c0.29,0.107,0.537,0.243,0.739,0.408c0.202,0.165,0.365,0.348,0.491,0.546c0.125,0.199,0.217,0.386,0.276,0.563l-1.312,0.551
					c-0.074-0.221-0.208-0.419-0.403-0.596c-0.195-0.176-0.462-0.265-0.799-0.265c-0.324,0-0.592,0.075-0.805,0.226
					c-0.213,0.151-0.32,0.348-0.32,0.59c0,0.235,0.103,0.436,0.309,0.601c0.206,0.165,0.533,0.325,0.982,0.48l0.496,0.165
					c0.316,0.111,0.605,0.237,0.866,0.381c0.261,0.143,0.485,0.314,0.673,0.513c0.187,0.199,0.331,0.425,0.43,0.678
					c0.099,0.254,0.149,0.546,0.149,0.877c0,0.412-0.083,0.767-0.248,1.064c-0.165,0.298-0.377,0.542-0.634,0.734
					c-0.258,0.191-0.548,0.335-0.872,0.43C287.422,440.797,287.105,440.845,286.797,440.845z"/>
			</g>
			<g>
				<path style="fill:#FFFFFF;" d="M321.394,439.168l4.004-4.985h-3.827v-1.412h5.559v1.5l-3.96,4.985h4.004v1.412h-5.779V439.168z"
					/>
				<path style="fill:#FFFFFF;" d="M328.409,432.771h1.489v7.897h-1.489V432.771z"/>
				<path style="fill:#FFFFFF;" d="M331.486,440.669v-7.897h2.779c0.375,0,0.726,0.061,1.053,0.182
					c0.327,0.121,0.612,0.292,0.855,0.513s0.434,0.483,0.574,0.789c0.14,0.305,0.209,0.642,0.209,1.009
					c0,0.375-0.07,0.715-0.209,1.02c-0.14,0.305-0.331,0.568-0.574,0.789c-0.243,0.221-0.528,0.392-0.855,0.513
					c-0.327,0.121-0.678,0.182-1.053,0.182h-1.29v2.901H331.486z M334.288,436.356c0.389,0,0.684-0.111,0.882-0.331
					c0.199-0.22,0.298-0.474,0.298-0.761c0-0.14-0.024-0.276-0.072-0.408c-0.048-0.132-0.121-0.248-0.221-0.347
					c-0.099-0.099-0.222-0.178-0.37-0.237c-0.147-0.059-0.32-0.089-0.518-0.089h-1.312v2.173H334.288z"/>
			</g>
		</g>
		<g style="opacity:0.61;">
			<path style="fill:#FFFFFF;" d="M300.133,433.27h9.067v2.242h-9.067V433.27z M300.133,437.136h9.067v2.243h-9.067V437.136z"/>
		</g>
	</g>
	<g style="opacity:0.61;">
		<path style="fill:#FFFFFF;" d="M156.756,478.878h1.607c1.263,0,2.114,0.812,2.114,1.974c0,1.161-0.851,1.973-2.114,1.973h-1.607
			V478.878z M158.34,482.464c1.049,0,1.725-0.665,1.725-1.612c0-0.947-0.677-1.613-1.725-1.613h-1.167v3.225H158.34z"/>
		<path style="fill:#FFFFFF;" d="M165.139,480.851c0-1.15,0.879-2.007,2.075-2.007c1.184,0,2.069,0.851,2.069,2.007
			c0,1.156-0.885,2.007-2.069,2.007C166.019,482.858,165.139,482.002,165.139,480.851z M168.866,480.851
			c0-0.942-0.705-1.635-1.652-1.635c-0.953,0-1.663,0.693-1.663,1.635c0,0.941,0.71,1.635,1.663,1.635
			C168.162,482.486,168.866,481.793,168.866,480.851z"/>
		<path style="fill:#FFFFFF;" d="M179.596,478.878l-1.331,3.947h-0.44l-1.156-3.366l-1.161,3.366h-0.434l-1.331-3.947h0.429
			l1.139,3.394l1.178-3.394h0.389l1.161,3.411l1.156-3.411H179.596z"/>
		<path style="fill:#FFFFFF;" d="M187.731,478.878v3.947h-0.344l-2.537-3.202v3.202h-0.417v-3.947h0.344l2.543,3.203v-3.203H187.731
			z"/>
		<path style="fill:#FFFFFF;" d="M193.093,478.878h0.417v3.586h2.21v0.361h-2.627V478.878z"/>
		<path style="fill:#FFFFFF;" d="M200.061,480.851c0-1.15,0.879-2.007,2.075-2.007c1.184,0,2.069,0.851,2.069,2.007
			c0,1.156-0.885,2.007-2.069,2.007C200.941,482.858,200.061,482.002,200.061,480.851z M203.788,480.851
			c0-0.942-0.705-1.635-1.652-1.635c-0.953,0-1.663,0.693-1.663,1.635c0,0.941,0.71,1.635,1.663,1.635
			C203.083,482.486,203.788,481.793,203.788,480.851z"/>
		<path style="fill:#FFFFFF;" d="M211.636,481.77h-2.199l-0.474,1.054h-0.434l1.804-3.947h0.412l1.804,3.947h-0.44L211.636,481.77z
			 M211.484,481.432l-0.947-2.12l-0.947,2.12H211.484z"/>
		<path style="fill:#FFFFFF;" d="M217.28,478.878h1.607c1.263,0,2.114,0.812,2.114,1.974c0,1.161-0.851,1.973-2.114,1.973h-1.607
			V478.878z M218.864,482.464c1.049,0,1.725-0.665,1.725-1.612c0-0.947-0.677-1.613-1.725-1.613h-1.167v3.225H218.864z"/>
		<path style="fill:#FFFFFF;" d="M234.041,481.77h-2.199l-0.474,1.054h-0.434l1.804-3.947h0.412l1.804,3.947h-0.44L234.041,481.77z
			 M233.889,481.432l-0.947-2.12l-0.947,2.12H233.889z"/>
		<path style="fill:#FFFFFF;" d="M239.685,478.878h0.417v3.586h2.21v0.361h-2.627V478.878z"/>
		<path style="fill:#FFFFFF;" d="M247.082,478.878h0.417v3.586h2.21v0.361h-2.627V478.878z"/>
		<path style="fill:#FFFFFF;" d="M260.449,479.239v1.551h2.041v0.361h-2.041v1.675h-0.417v-3.947h2.706v0.361H260.449z"/>
		<path style="fill:#FFFFFF;" d="M267.678,478.878h0.417v3.947h-0.417V478.878z"/>
		<path style="fill:#FFFFFF;" d="M273.456,478.878h0.417v3.586h2.21v0.361h-2.627V478.878z"/>
		<path style="fill:#FFFFFF;" d="M283.644,482.464v0.361h-2.791v-3.947h2.706v0.361h-2.289v1.404h2.041v0.355h-2.041v1.466H283.644z
			"/>
		<path style="fill:#FFFFFF;" d="M294.672,479.239v1.551h2.041v0.361h-2.041v1.675h-0.417v-3.947h2.706v0.361H294.672z"/>
		<path style="fill:#FFFFFF;" d="M301.5,480.851c0-1.15,0.879-2.007,2.075-2.007c1.184,0,2.069,0.851,2.069,2.007
			c0,1.156-0.885,2.007-2.069,2.007C302.379,482.858,301.5,482.002,301.5,480.851z M305.226,480.851
			c0-0.942-0.705-1.635-1.652-1.635c-0.953,0-1.663,0.693-1.663,1.635c0,0.941,0.71,1.635,1.663,1.635
			C304.522,482.486,305.226,481.793,305.226,480.851z"/>
		<path style="fill:#FFFFFF;" d="M313.351,482.825l-0.902-1.269c-0.102,0.011-0.203,0.017-0.316,0.017h-1.06v1.252h-0.417v-3.947
			h1.477c1.004,0,1.613,0.507,1.613,1.353c0,0.62-0.327,1.054-0.902,1.24l0.964,1.353H313.351z M313.328,480.231
			c0-0.632-0.417-0.992-1.207-0.992h-1.048v1.979h1.048C312.911,481.218,313.328,480.851,313.328,480.231z"/>
		<path style="fill:#FFFFFF;" d="M322.907,478.878v3.947h-0.4v-3.158l-1.551,2.656h-0.197l-1.551-2.639v3.14h-0.4v-3.947h0.344
			l1.714,2.926l1.697-2.926H322.907z"/>
		<path style="fill:#FFFFFF;" d="M330.744,481.77h-2.199l-0.473,1.054h-0.434l1.804-3.947h0.411l1.804,3.947h-0.44L330.744,481.77z
			 M330.592,481.432l-0.947-2.12l-0.947,2.12H330.592z"/>
		<path style="fill:#FFFFFF;" d="M336.957,479.239h-1.387v-0.361h3.192v0.361h-1.387v3.586h-0.417V479.239z"/>
		<path style="fill:#FFFFFF;" d="M343.063,482.346l0.164-0.321c0.282,0.276,0.784,0.479,1.302,0.479c0.739,0,1.06-0.31,1.06-0.699
			c0-1.083-2.43-0.417-2.43-1.877c0-0.581,0.451-1.083,1.455-1.083c0.446,0,0.908,0.13,1.224,0.35l-0.141,0.333
			c-0.338-0.22-0.733-0.327-1.083-0.327c-0.722,0-1.043,0.321-1.043,0.716c0,1.083,2.43,0.429,2.43,1.866
			c0,0.581-0.462,1.077-1.472,1.077C343.937,482.858,343.356,482.65,343.063,482.346z"/>
	</g>
</g>
<g>
</g>
<g id="XMLID_103_">
	<rect id="XMLID_102_" x="275.854" y="209.112" style="fill:#CC1F66;" width="198.146" height="81.776"/>
	<g>
		<path id="XMLID_101_" style="fill:#FFFFFF;" d="M367.403,245.536c3.742-6.146,8.322-11.742,13.186-11.801
			c2.957-0.035,4.748,2.152,3.895,5.872l-1.313,5.969c3.742-6.144,8.277-11.782,13.143-11.842c2.955-0.035,4.713,2.19,3.893,5.872
			c-0.687,3.09-4.325,18.775-4.448,19.379c-0.428,2.124,1.16,2.764,2.475,1.337c1.165-1.266,1.724-2.438,2.258-3.86h2.05
			c-1.703,5.253-4.994,8.532-8.877,8.532c-3.033,0-4.446-2.442-3.65-6.009c0.404-1.807,4.032-17.445,4.325-18.751
			c0.262-1.157,0.151-1.774-0.487-2.015c-0.56-0.213-1.344,0.095-2.01,0.567c-2.336,1.654-4.62,4.391-7.091,8.719
			c-3.196,5.601-5.06,12.725-6.007,16.982h-5.676c0.402-1.807,5.253-22.946,5.546-24.252c0.262-1.157,0.151-1.774-0.487-2.015
			c-0.56-0.213-1.344,0.095-2.01,0.567c-2.336,1.654-4.62,4.391-7.091,8.719c-3.196,5.601-5.017,12.725-5.962,16.982h-5.721
			l5.927-25.578c0.371-1.606-0.137-2.57-1.958-2.57h-2.22l0.501-2.178h8.15c1.547,0,2.294,0.947,1.899,2.527
			C369.293,238.089,367.403,245.536,367.403,245.536"/>
	</g>
	<polygon id="XMLID_100_" style="fill:#FFFFFF;" points="351.957,264.474 351.957,234.183 346.212,234.183 346.212,264.474 
		352.044,264.474 	"/>
	<g>
		<path id="XMLID_99_" style="fill:#FFFFFF;" d="M321.422,249.257c0,6.761,4.944,10.84,11.086,10.84
			c2.891,0,5.771-0.775,7.842-1.812l-1.2,5.431c-1.939,0.912-4.439,1.285-7.11,1.285c-9.562,0-16.788-5.346-16.788-15.656
			c0-10.079,7.783-15.656,16.875-15.656c2.742,0,5.546,0.659,7.531,1.542v4.824c-1.935-0.985-4.172-1.724-7.15-1.724
			C326.366,238.33,321.422,242.265,321.422,249.257"/>
	</g>
	<path style="fill:#FFFFFF;" d="M414.31,252.885l4.715-12.987l4.658,12.987H414.31z M428.02,264.478h6.581l-11.889-30.252h-6.765
		l-11.827,30.252h6.158l2.53-6.983h12.711L428.02,264.478z"/>
	<g>
		<path id="XMLID_96_" style="fill:#131309;" d="M69.124,244.255c-4.368,0-6.905-3.016-6.905-6.926c0-3.931,2.91-7.113,7.424-7.113
			c1.457,0,2.747,0.291,3.557,0.749l-0.021,2.287c-1.143-0.685-2.246-0.978-3.472-0.978c-3.182,0-4.765,2.31-4.765,4.89
			c0,2.766,1.748,4.909,4.576,4.909c1.25,0,2.331-0.354,3.371-0.917l0.685,1.809C72.057,243.879,70.6,244.255,69.124,244.255"/>
		<path id="XMLID_95_" style="fill:#131309;" d="M81.206,244.047v-5.74c0-1.103-0.168-2.142-1.498-2.142
			c-0.853,0-1.727,0.477-2.391,1.039v6.843h-2.497v-14.726h2.497v5.948c0.914-0.749,1.996-1.29,3.265-1.29
			c1.519,0,3.139,0.73,3.139,3.619v6.449H81.206z"/>
		<path style="fill:#131309;" d="M90.918,239.533l-1.415,0.043c-1.351,0.04-1.956,0.498-1.956,1.33c0,0.813,0.562,1.375,1.602,1.375
			c0.874,0,1.436-0.333,1.769-0.626V239.533z M91.541,244.047l-0.416-0.874c-0.645,0.583-1.54,1.082-2.849,1.082
			c-1.809,0-3.224-1.228-3.224-3.161c0-2.038,1.602-3.142,4.117-3.224l1.748-0.061v-0.25c0-1.186-0.832-1.665-1.873-1.665
			c-1.08,0-1.913,0.354-2.537,0.73l-0.81-1.561c1.311-0.874,2.537-1.082,3.848-1.082c2.433,0,3.909,0.999,3.909,3.579v3.888
			c0,1.415,0.042,2.142,0.187,2.601H91.541z"/>
		<path id="XMLID_92_" style="fill:#131309;" d="M100.878,236.518c-0.416-0.25-0.853-0.312-1.165-0.312
			c-0.583,0-1.226,0.269-1.892,0.874v6.966h-2.497v-9.836h2.102l0.269,1.039c1.02-0.895,1.788-1.268,2.724-1.268
			c0.479,0,0.999,0.144,1.375,0.416L100.878,236.518z"/>
		<path id="XMLID_91_" style="fill:#131309;" d="M105.993,244.255c-1.748,0-2.433-0.978-2.433-2.308v-5.865h-1.748v-1.873h1.748
			v-2.268l2.497-0.747v3.014h3.057l-0.728,1.873h-2.329v4.949c0,0.77,0.291,1.124,0.935,1.124c0.624,0,1.269-0.291,1.642-0.541
			l0.666,1.58C108.281,243.922,106.949,244.255,105.993,244.255"/>
		<path style="fill:#131309;" d="M114.185,235.852c-1.205,0-1.935,1.082-1.935,2.164h3.827
			C116.037,236.953,115.454,235.852,114.185,235.852 M112.314,239.783c0.042,1.455,1.247,2.476,2.766,2.476
			c0.935,0,1.705-0.229,2.558-0.687l0.602,1.602c-1.101,0.77-2.412,1.082-3.576,1.082c-3.432,0-4.887-2.497-4.887-5.138
			c0-2.806,1.663-5.138,4.472-5.138c2.662,0,4.41,2.017,4.41,5.076v0.728H112.314z"/>
		<path id="XMLID_88_" style="fill:#131309;" d="M125.624,236.518c-0.416-0.25-0.853-0.312-1.165-0.312
			c-0.583,0-1.228,0.269-1.892,0.874v6.966h-2.497v-9.836h2.102l0.269,1.039c1.018-0.895,1.788-1.268,2.724-1.268
			c0.479,0,0.999,0.144,1.375,0.416L125.624,236.518z"/>
		<path style="fill:#131309;" d="M130.859,235.852c-1.205,0-1.935,1.082-1.935,2.164h3.827
			C132.711,236.953,132.128,235.852,130.859,235.852 M128.988,239.783c0.042,1.455,1.247,2.476,2.766,2.476
			c0.935,0,1.705-0.229,2.558-0.687l0.602,1.602c-1.101,0.77-2.412,1.082-3.576,1.082c-3.432,0-4.887-2.497-4.887-5.138
			c0-2.806,1.663-5.138,4.472-5.138c2.662,0,4.41,2.017,4.41,5.076v0.728H128.988z"/>
		<path style="fill:#131309;" d="M143.004,236.103c-0.333-0.085-0.624-0.146-1.165-0.146c-1.767,0-3.035,1.186-3.035,3.12
			c0,1.788,1.165,3.118,3.078,3.118c0.394,0,0.831-0.061,1.122-0.144V236.103z M141.652,244.255c-2.932,0-5.346-1.727-5.346-5.053
			c0-3.059,2.268-5.223,5.449-5.223c0.498,0,0.893,0.021,1.247,0.085v-4.743h2.497v14.142
			C144.565,243.943,143.337,244.255,141.652,244.255"/>
	</g>
	<rect id="XMLID_83_" x="152.028" y="230.341" style="fill:#131309;" width="2.516" height="13.705"/>
	<g>
		<path id="XMLID_82_" style="fill:#131309;" d="M163.093,244.047v-5.783c0-1.018-0.187-2.142-1.455-2.142
			c-0.874,0-1.727,0.458-2.497,1.042v6.883h-2.497v-9.838h2.121l0.272,1.061c1.061-0.789,2.121-1.29,3.454-1.29
			c1.498,0,3.099,0.895,3.099,3.536v6.531H163.093z"/>
		<path id="XMLID_81_" style="fill:#131309;" d="M170.266,244.255c-1.623,0-2.787-0.394-3.64-0.914l0.81-1.831
			c0.73,0.498,1.665,0.874,2.643,0.874c1.018,0,1.684-0.376,1.684-1.042c0-1.767-4.533-1.101-4.533-4.45
			c0-1.706,1.351-2.913,3.72-2.913c1.228,0,2.124,0.189,2.894,0.501v2.079c-0.855-0.333-1.748-0.645-2.787-0.645
			c-0.874,0-1.394,0.272-1.394,0.853c0,1.561,4.616,1.042,4.616,4.432C174.279,243.402,172.347,244.255,170.266,244.255"/>
		<path id="XMLID_80_" style="fill:#131309;" d="M178.959,244.255c-1.748,0-2.433-0.978-2.433-2.308v-5.865h-1.748v-1.873h1.748
			v-2.268l2.497-0.747v3.014h3.057l-0.728,1.873h-2.329v4.949c0,0.77,0.291,1.124,0.935,1.124c0.624,0,1.269-0.291,1.642-0.541
			l0.666,1.58C181.248,243.922,179.915,244.255,178.959,244.255"/>
		<path style="fill:#131309;" d="M183.471,234.209h2.497v9.839h-2.497V234.209z M184.719,232.691c-0.853,0-1.54-0.666-1.54-1.519
			c0-0.81,0.687-1.498,1.54-1.498c0.874,0,1.559,0.666,1.559,1.498C186.278,232.003,185.593,232.691,184.719,232.691"/>
		<path id="XMLID_64_" style="fill:#131309;" d="M191.457,244.255c-1.748,0-2.433-0.978-2.433-2.308v-5.865h-1.748v-1.873h1.748
			v-2.268l2.497-0.747v3.014h3.057l-0.728,1.873h-2.329v4.949c0,0.77,0.291,1.124,0.935,1.124c0.624,0,1.269-0.291,1.642-0.541
			l0.666,1.58C193.746,243.922,192.414,244.255,191.457,244.255"/>
		<path id="XMLID_63_" style="fill:#131309;" d="M202.458,244.047l-0.437-0.978c-0.685,0.624-1.705,1.186-3.016,1.186
			c-1.29,0-3.326-0.666-3.326-3.827v-6.22h2.494v6.073c0,1.228,0.562,1.998,1.769,1.998c0.81,0,1.476-0.437,1.892-0.813v-7.259
			h2.494v7.112c0,1.519,0.021,2.228,0.189,2.726H202.458z"/>
		<path id="XMLID_62_" style="fill:#131309;" d="M209.653,244.255c-1.748,0-2.433-0.978-2.433-2.308v-5.865h-1.748v-1.873h1.748
			v-2.268l2.497-0.747v3.014h3.057l-0.728,1.873h-2.329v4.949c0,0.77,0.291,1.124,0.935,1.124c0.624,0,1.269-0.291,1.642-0.541
			l0.666,1.58C211.942,243.922,210.609,244.255,209.653,244.255"/>
		<path style="fill:#131309;" d="M217.846,235.852c-1.205,0-1.935,1.082-1.935,2.164h3.827
			C219.698,236.953,219.114,235.852,217.846,235.852 M215.975,239.783c0.042,1.455,1.247,2.476,2.766,2.476
			c0.935,0,1.705-0.229,2.558-0.687l0.602,1.602c-1.101,0.77-2.412,1.082-3.576,1.082c-3.432,0-4.887-2.497-4.887-5.138
			c0-2.806,1.663-5.138,4.472-5.138c2.662,0,4.408,2.017,4.408,5.076v0.728H215.975z"/>
		<path style="fill:#131309;" d="M232.674,235.955c-1.583,0-2.35,1.332-2.35,3.163c0,1.913,0.893,3.203,2.412,3.203
			c1.559,0,2.35-1.354,2.35-3.203C235.086,237.226,234.212,235.955,232.674,235.955 M236.25,242.841
			c-0.874,0.895-2.081,1.415-3.557,1.415c-1.372,0-2.537-0.437-3.39-1.228c-0.978-0.914-1.519-2.265-1.519-3.848
			c0-1.538,0.522-2.87,1.436-3.805c0.874-0.874,2.06-1.394,3.494-1.394c1.519,0,2.745,0.52,3.619,1.415
			c0.853,0.914,1.311,2.204,1.311,3.702C237.644,240.594,237.167,241.924,236.25,242.841"/>
		<path id="XMLID_44_" style="fill:#131309;" d="M244.777,231.588c-0.395-0.165-0.832-0.269-1.247-0.269
			c-0.791,0-1.167,0.477-1.167,1.33v1.561h2.601l-0.645,1.913h-1.956v7.923h-2.494v-7.923h-1.434v-1.913h1.434v-1.375
			c0-2.91,2.1-3.515,3.472-3.515c0.52,0,1.29,0.125,1.935,0.437L244.777,231.588z"/>
		<path id="XMLID_43_" style="fill:#131309;" d="M37.294,264.494v-8.154c0-0.498,0-0.935,0.042-1.476h-0.021
			c-0.187,0.437-0.605,1.082-0.831,1.415l-2.809,4.41h-1.247l-3.078-4.472c-0.272-0.376-0.562-0.77-0.834-1.354h-0.04
			c0.04,0.562,0.04,0.999,0.04,1.415v8.216H26v-13.705h2.35l3.784,5.49c0.397,0.562,0.666,0.999,0.917,1.455h0.04
			c0.208-0.435,0.458-0.914,0.853-1.516l3.496-5.428h2.369v13.705H37.294z"/>
		<path style="fill:#131309;" d="M47.296,259.98l-1.415,0.043c-1.351,0.042-1.956,0.498-1.956,1.33c0,0.813,0.562,1.375,1.602,1.375
			c0.874,0,1.436-0.333,1.769-0.626V259.98z M47.919,264.494l-0.416-0.874c-0.645,0.583-1.54,1.082-2.849,1.082
			c-1.809,0-3.224-1.226-3.224-3.161c0-2.038,1.602-3.142,4.117-3.224l1.748-0.061v-0.25c0-1.186-0.832-1.665-1.873-1.665
			c-1.08,0-1.913,0.354-2.537,0.73l-0.81-1.561c1.311-0.872,2.537-1.082,3.848-1.082c2.433,0,3.909,0.999,3.909,3.579v3.888
			c0,1.415,0.042,2.142,0.189,2.601H47.919z"/>
		<path id="XMLID_40_" style="fill:#131309;" d="M58.151,264.494v-5.783c0-1.018-0.187-2.142-1.455-2.142
			c-0.874,0-1.727,0.458-2.497,1.042v6.883h-2.497v-9.838h2.121l0.272,1.061c1.061-0.789,2.121-1.29,3.454-1.29
			c1.498,0,3.099,0.895,3.099,3.536v6.531H58.151z"/>
		<path style="fill:#131309;" d="M67.862,259.98l-1.415,0.043c-1.351,0.042-1.956,0.498-1.956,1.33c0,0.813,0.562,1.375,1.602,1.375
			c0.874,0,1.436-0.333,1.769-0.626V259.98z M68.485,264.494l-0.416-0.874c-0.645,0.583-1.54,1.082-2.849,1.082
			c-1.809,0-3.224-1.226-3.224-3.161c0-2.038,1.602-3.142,4.117-3.224l1.748-0.061v-0.25c0-1.186-0.832-1.665-1.873-1.665
			c-1.08,0-1.913,0.354-2.537,0.73l-0.81-1.561c1.311-0.872,2.537-1.082,3.848-1.082c2.433,0,3.909,0.999,3.909,3.579v3.888
			c0,1.415,0.042,2.142,0.189,2.601H68.485z"/>
		<path style="fill:#131309;" d="M76.055,256.299c-0.917,0-1.644,0.602-1.644,1.727c0,1.039,0.645,1.913,1.748,1.913
			c0.978,0,1.746-0.602,1.746-1.809C77.904,257.214,77.219,256.299,76.055,256.299 M74.328,264.806
			c-0.333,0.229-0.831,0.602-0.831,1.29c0,0.831,1.039,1.54,2.745,1.54c1.436,0,2.497-0.458,2.497-1.228
			C78.738,265.139,75.431,265.264,74.328,264.806 M76.034,269.402c-2.953,0-4.68-1.33-4.68-2.913c0-1.122,0.81-1.913,1.809-2.35
			c-0.477-0.248-0.666-0.789-0.666-1.226c0-0.602,0.416-1.311,1.25-1.831c-1.061-0.541-1.708-1.767-1.708-3.016
			c0-1.871,1.415-3.68,4.077-3.68c0.791,0,1.436,0.187,1.873,0.437c0.123,0.061,0.187,0.021,0.248-0.064
			c0.583-0.541,1.457-0.935,3.099-0.768l-0.52,1.85c-0.52-0.104-0.999-0.165-1.394,0c0.583,0.624,0.938,1.354,0.938,2.475
			c0,2.143-1.831,3.536-4.037,3.536c-0.52,0-0.914-0.043-1.33-0.187c-0.168,0.269-0.25,0.477-0.25,0.789
			c0,1.476,6.718,0.083,6.718,3.683C81.462,267.843,79.735,269.402,76.034,269.402"/>
		<path style="fill:#131309;" d="M86.01,256.3c-1.205,0-1.935,1.082-1.935,2.164h3.827C87.862,257.401,87.279,256.3,86.01,256.3
			 M84.14,260.231c0.042,1.455,1.247,2.476,2.766,2.476c0.935,0,1.705-0.229,2.558-0.687l0.602,1.602
			c-1.101,0.77-2.412,1.082-3.576,1.082c-3.432,0-4.887-2.497-4.887-5.138c0-2.809,1.663-5.138,4.472-5.138
			c2.662,0,4.41,2.017,4.41,5.076v0.728H84.14z"/>
		<path id="XMLID_32_" style="fill:#131309;" d="M104.457,264.494v-5.969c0-1.103-0.208-1.975-1.434-1.975
			c-0.895,0-1.727,0.477-2.372,0.997c0.021,0.083,0.021,0.229,0.021,0.354v6.593h-2.497v-5.927c0-1.103-0.208-2.017-1.415-2.017
			c-0.893,0-1.727,0.477-2.372,0.997v6.947h-2.494v-9.838h2.1l0.25,1.082c1.082-0.831,2.204-1.311,3.35-1.311
			c1.226,0,2.119,0.562,2.577,1.479c1.146-0.978,2.435-1.479,3.515-1.479c1.687,0,3.246,0.813,3.246,3.392v6.675H104.457z"/>
		<path style="fill:#131309;" d="M112.712,256.3c-1.205,0-1.935,1.082-1.935,2.164h3.827
			C114.563,257.401,113.98,256.3,112.712,256.3 M110.841,260.231c0.042,1.455,1.247,2.476,2.766,2.476
			c0.935,0,1.705-0.229,2.558-0.687l0.602,1.602c-1.101,0.77-2.412,1.082-3.576,1.082c-3.432,0-4.887-2.497-4.887-5.138
			c0-2.809,1.663-5.138,4.472-5.138c2.662,0,4.41,2.017,4.41,5.076v0.728H110.841z"/>
		<path id="XMLID_16_" style="fill:#131309;" d="M125.044,264.494v-5.783c0-1.018-0.187-2.142-1.455-2.142
			c-0.874,0-1.727,0.458-2.497,1.042v6.883h-2.497v-9.838h2.121l0.272,1.061c1.061-0.789,2.121-1.29,3.454-1.29
			c1.498,0,3.099,0.895,3.099,3.536v6.531H125.044z"/>
		<path id="XMLID_15_" style="fill:#131309;" d="M132.675,264.702c-1.748,0-2.433-0.978-2.433-2.308v-5.865h-1.748v-1.873h1.748
			v-2.268l2.497-0.747v3.014h3.057l-0.728,1.873h-2.329v4.949c0,0.77,0.291,1.124,0.935,1.124c0.624,0,1.269-0.29,1.642-0.541
			l0.666,1.58C134.964,264.369,133.632,264.702,132.675,264.702"/>
		<path style="fill:#131309;" d="M145.939,255.863c-0.248-0.687-0.413-1.247-0.52-1.705h-0.019c-0.085,0.48-0.272,1.018-0.501,1.663
			l-1.186,3.182h3.328L145.939,255.863z M149.185,264.494l-1.351-3.432h-4.887l-1.268,3.432h-2.476l5.324-13.769h1.828l5.513,13.769
			H149.185z"/>
		<path id="XMLID_12_" style="fill:#131309;" d="M156.459,264.702c-3.203,0-4.847-2.308-4.847-5.074
			c0-2.995,2.164-5.202,5.095-5.202c1.332,0,2.249,0.333,2.809,0.687l-0.04,2.038c-0.687-0.52-1.457-0.813-2.476-0.813
			c-1.684,0-2.891,1.332-2.891,3.163c0,1.684,0.914,3.182,2.87,3.182c0.935,0,1.642-0.291,2.329-0.687l0.624,1.644
			C159.142,264.182,157.81,264.702,156.459,264.702"/>
		<path id="XMLID_11_" style="fill:#131309;" d="M165.276,264.702c-3.203,0-4.847-2.308-4.847-5.074
			c0-2.995,2.164-5.202,5.095-5.202c1.332,0,2.249,0.333,2.809,0.687l-0.04,2.038c-0.687-0.52-1.457-0.813-2.476-0.813
			c-1.684,0-2.891,1.332-2.891,3.163c0,1.684,0.914,3.182,2.87,3.182c0.935,0,1.642-0.291,2.329-0.687l0.624,1.644
			C167.96,264.182,166.627,264.702,165.276,264.702"/>
		<path style="fill:#131309;" d="M174.136,256.402c-1.583,0-2.35,1.332-2.35,3.163c0,1.913,0.893,3.203,2.412,3.203
			c1.559,0,2.35-1.354,2.35-3.203C176.548,257.673,175.674,256.402,174.136,256.402 M177.712,263.288
			c-0.874,0.895-2.079,1.415-3.557,1.415c-1.372,0-2.537-0.437-3.39-1.228c-0.976-0.914-1.519-2.268-1.519-3.848
			c0-1.538,0.522-2.87,1.436-3.805c0.874-0.874,2.06-1.394,3.494-1.394c1.519,0,2.745,0.52,3.619,1.415
			c0.853,0.914,1.311,2.204,1.311,3.702C179.106,261.042,178.629,262.372,177.712,263.288"/>
		<path id="XMLID_8_" style="fill:#131309;" d="M187.32,264.494l-0.437-0.978c-0.685,0.624-1.705,1.186-3.016,1.186
			c-1.29,0-3.326-0.666-3.326-3.827v-6.22h2.494v6.073c0,1.228,0.562,1.998,1.769,1.998c0.81,0,1.476-0.437,1.892-0.813v-7.259
			h2.494v7.115c0,1.516,0.021,2.225,0.189,2.723H187.32z"/>
		<path id="XMLID_7_" style="fill:#131309;" d="M197.634,264.494v-5.783c0-1.018-0.187-2.142-1.455-2.142
			c-0.874,0-1.727,0.458-2.497,1.042v6.883h-2.497v-9.838h2.121l0.272,1.061c1.061-0.789,2.121-1.29,3.454-1.29
			c1.498,0,3.099,0.895,3.099,3.536v6.531H197.634z"/>
		<path id="XMLID_6_" style="fill:#131309;" d="M205.265,264.702c-1.748,0-2.433-0.978-2.433-2.308v-5.865h-1.748v-1.873h1.748
			v-2.268l2.497-0.747v3.014h3.057l-0.728,1.873h-2.329v4.949c0,0.77,0.291,1.124,0.935,1.124c0.624,0,1.269-0.29,1.642-0.541
			l0.666,1.58C207.554,264.369,206.222,264.702,205.265,264.702"/>
		<path style="fill:#131309;" d="M214.894,259.98l-1.415,0.043c-1.351,0.042-1.956,0.498-1.956,1.33
			c0,0.813,0.562,1.375,1.602,1.375c0.874,0,1.436-0.333,1.769-0.626V259.98z M215.518,264.494l-0.416-0.874
			c-0.645,0.583-1.54,1.082-2.849,1.082c-1.809,0-3.224-1.226-3.224-3.161c0-2.038,1.602-3.142,4.117-3.224l1.748-0.061v-0.25
			c0-1.186-0.832-1.665-1.873-1.665c-1.08,0-1.913,0.354-2.537,0.73l-0.81-1.561c1.311-0.872,2.537-1.082,3.848-1.082
			c2.433,0,3.909,0.999,3.909,3.579v3.888c0,1.415,0.042,2.142,0.187,2.601H215.518z"/>
		<path id="XMLID_3_" style="fill:#131309;" d="M225.75,264.494v-5.783c0-1.018-0.187-2.142-1.455-2.142
			c-0.874,0-1.727,0.458-2.497,1.042v6.883h-2.497v-9.838h2.121l0.272,1.061c1.061-0.789,2.121-1.29,3.454-1.29
			c1.498,0,3.099,0.895,3.099,3.536v6.531H225.75z"/>
		<path id="XMLID_2_" style="fill:#131309;" d="M233.38,264.702c-1.748,0-2.433-0.978-2.433-2.308v-5.865h-1.748v-1.873h1.748
			v-2.268l2.497-0.747v3.014h3.057l-0.728,1.873h-2.329v4.949c0,0.77,0.291,1.124,0.935,1.124c0.624,0,1.269-0.29,1.642-0.541
			l0.666,1.58C235.669,264.369,234.337,264.702,233.38,264.702"/>
		<path id="XMLID_1_" style="fill:#131309;" d="M240.471,264.702c-1.623,0-2.787-0.394-3.64-0.914l0.81-1.831
			c0.73,0.498,1.665,0.874,2.643,0.874c1.018,0,1.684-0.376,1.684-1.042c0-1.767-4.535-1.101-4.535-4.45
			c0-1.706,1.354-2.913,3.723-2.913c1.228,0,2.124,0.189,2.894,0.501v2.079c-0.855-0.333-1.748-0.645-2.787-0.645
			c-0.874,0-1.394,0.272-1.394,0.853c0,1.561,4.616,1.042,4.616,4.432C244.484,263.849,242.552,264.702,240.471,264.702"/>
	</g>
</g>
</svg>
