<?xml version="1.0" encoding="UTF-8" standalone="no"?>
<!-- Generator: Adobe Illustrator 24.3.0, SVG Export Plug-In . SVG Version: 6.00 Build 0)  -->

<svg
   version="1.1"
   id="Layer_1"
   x="0px"
   y="0px"
   viewBox="0 0 448 81.776001"
   xml:space="preserve"
   width="448"
   height="81.776001"
   xmlns="http://www.w3.org/2000/svg"
   xmlns:svg="http://www.w3.org/2000/svg"><defs
   id="defs109" />



<g
   id="XMLID_103_"
   transform="translate(-26,-209.112)">
	<rect
   id="XMLID_102_"
   x="275.854"
   y="209.112"
   style="fill:#cc1f66"
   width="198.146"
   height="81.776001" />
	<g
   id="g93">
		<path
   id="XMLID_101_"
   style="fill:#ffffff"
   d="m 367.403,245.536 c 3.742,-6.146 8.322,-11.742 13.186,-11.801 2.957,-0.035 4.748,2.152 3.895,5.872 l -1.313,5.969 c 3.742,-6.144 8.277,-11.782 13.143,-11.842 2.955,-0.035 4.713,2.19 3.893,5.872 -0.687,3.09 -4.325,18.775 -4.448,19.379 -0.428,2.124 1.16,2.764 2.475,1.337 1.165,-1.266 1.724,-2.438 2.258,-3.86 h 2.05 c -1.703,5.253 -4.994,8.532 -8.877,8.532 -3.033,0 -4.446,-2.442 -3.65,-6.009 0.404,-1.807 4.032,-17.445 4.325,-18.751 0.262,-1.157 0.151,-1.774 -0.487,-2.015 -0.56,-0.213 -1.344,0.095 -2.01,0.567 -2.336,1.654 -4.62,4.391 -7.091,8.719 -3.196,5.601 -5.06,12.725 -6.007,16.982 h -5.676 c 0.402,-1.807 5.253,-22.946 5.546,-24.252 0.262,-1.157 0.151,-1.774 -0.487,-2.015 -0.56,-0.213 -1.344,0.095 -2.01,0.567 -2.336,1.654 -4.62,4.391 -7.091,8.719 -3.196,5.601 -5.017,12.725 -5.962,16.982 h -5.721 l 5.927,-25.578 c 0.371,-1.606 -0.137,-2.57 -1.958,-2.57 h -2.22 l 0.501,-2.178 h 8.15 c 1.547,0 2.294,0.947 1.899,2.527 -0.35,1.4 -2.24,8.847 -2.24,8.847" />
	</g>
	<polygon
   id="XMLID_100_"
   style="fill:#ffffff"
   points="346.212,234.183 346.212,264.474 352.044,264.474 351.957,264.474 351.957,234.183 " />
	<g
   id="g94">
		<path
   id="XMLID_99_"
   style="fill:#ffffff"
   d="m 321.422,249.257 c 0,6.761 4.944,10.84 11.086,10.84 2.891,0 5.771,-0.775 7.842,-1.812 l -1.2,5.431 c -1.939,0.912 -4.439,1.285 -7.11,1.285 -9.562,0 -16.788,-5.346 -16.788,-15.656 0,-10.079 7.783,-15.656 16.875,-15.656 2.742,0 5.546,0.659 7.531,1.542 v 4.824 c -1.935,-0.985 -4.172,-1.724 -7.15,-1.724 -6.142,-10e-4 -11.086,3.934 -11.086,10.926" />
	</g>
	<path
   style="fill:#ffffff"
   d="m 414.31,252.885 4.715,-12.987 4.658,12.987 z m 13.71,11.593 h 6.581 l -11.889,-30.252 h -6.765 l -11.827,30.252 h 6.158 l 2.53,-6.983 h 12.711 z"
   id="path94" />
	<g
   id="g98">
		<path
   id="XMLID_96_"
   style="fill:#131309"
   d="m 69.124,244.255 c -4.368,0 -6.905,-3.016 -6.905,-6.926 0,-3.931 2.91,-7.113 7.424,-7.113 1.457,0 2.747,0.291 3.557,0.749 l -0.021,2.287 c -1.143,-0.685 -2.246,-0.978 -3.472,-0.978 -3.182,0 -4.765,2.31 -4.765,4.89 0,2.766 1.748,4.909 4.576,4.909 1.25,0 2.331,-0.354 3.371,-0.917 l 0.685,1.809 c -1.517,0.914 -2.974,1.29 -4.45,1.29" />
		<path
   id="XMLID_95_"
   style="fill:#131309"
   d="m 81.206,244.047 v -5.74 c 0,-1.103 -0.168,-2.142 -1.498,-2.142 -0.853,0 -1.727,0.477 -2.391,1.039 v 6.843 H 74.82 v -14.726 h 2.497 v 5.948 c 0.914,-0.749 1.996,-1.29 3.265,-1.29 1.519,0 3.139,0.73 3.139,3.619 v 6.449 z" />
		<path
   style="fill:#131309"
   d="m 90.918,239.533 -1.415,0.043 c -1.351,0.04 -1.956,0.498 -1.956,1.33 0,0.813 0.562,1.375 1.602,1.375 0.874,0 1.436,-0.333 1.769,-0.626 z m 0.623,4.514 -0.416,-0.874 c -0.645,0.583 -1.54,1.082 -2.849,1.082 -1.809,0 -3.224,-1.228 -3.224,-3.161 0,-2.038 1.602,-3.142 4.117,-3.224 l 1.748,-0.061 v -0.25 c 0,-1.186 -0.832,-1.665 -1.873,-1.665 -1.08,0 -1.913,0.354 -2.537,0.73 l -0.81,-1.561 c 1.311,-0.874 2.537,-1.082 3.848,-1.082 2.433,0 3.909,0.999 3.909,3.579 v 3.888 c 0,1.415 0.042,2.142 0.187,2.601 h -2.1 z"
   id="path95" />
		<path
   id="XMLID_92_"
   style="fill:#131309"
   d="m 100.878,236.518 c -0.416,-0.25 -0.853,-0.312 -1.165,-0.312 -0.583,0 -1.226,0.269 -1.892,0.874 v 6.966 h -2.497 v -9.836 h 2.102 l 0.269,1.039 c 1.02,-0.895 1.788,-1.268 2.724,-1.268 0.479,0 0.999,0.144 1.375,0.416 z" />
		<path
   id="XMLID_91_"
   style="fill:#131309"
   d="m 105.993,244.255 c -1.748,0 -2.433,-0.978 -2.433,-2.308 v -5.865 h -1.748 v -1.873 h 1.748 v -2.268 l 2.497,-0.747 v 3.014 h 3.057 l -0.728,1.873 h -2.329 v 4.949 c 0,0.77 0.291,1.124 0.935,1.124 0.624,0 1.269,-0.291 1.642,-0.541 l 0.666,1.58 c -1.019,0.729 -2.351,1.062 -3.307,1.062" />
		<path
   style="fill:#131309"
   d="m 114.185,235.852 c -1.205,0 -1.935,1.082 -1.935,2.164 h 3.827 c -0.04,-1.063 -0.623,-2.164 -1.892,-2.164 m -1.871,3.931 c 0.042,1.455 1.247,2.476 2.766,2.476 0.935,0 1.705,-0.229 2.558,-0.687 l 0.602,1.602 c -1.101,0.77 -2.412,1.082 -3.576,1.082 -3.432,0 -4.887,-2.497 -4.887,-5.138 0,-2.806 1.663,-5.138 4.472,-5.138 2.662,0 4.41,2.017 4.41,5.076 v 0.728 h -6.345 z"
   id="path96" />
		<path
   id="XMLID_88_"
   style="fill:#131309"
   d="m 125.624,236.518 c -0.416,-0.25 -0.853,-0.312 -1.165,-0.312 -0.583,0 -1.228,0.269 -1.892,0.874 v 6.966 h -2.497 v -9.836 h 2.102 l 0.269,1.039 c 1.018,-0.895 1.788,-1.268 2.724,-1.268 0.479,0 0.999,0.144 1.375,0.416 z" />
		<path
   style="fill:#131309"
   d="m 130.859,235.852 c -1.205,0 -1.935,1.082 -1.935,2.164 h 3.827 c -0.04,-1.063 -0.623,-2.164 -1.892,-2.164 m -1.871,3.931 c 0.042,1.455 1.247,2.476 2.766,2.476 0.935,0 1.705,-0.229 2.558,-0.687 l 0.602,1.602 c -1.101,0.77 -2.412,1.082 -3.576,1.082 -3.432,0 -4.887,-2.497 -4.887,-5.138 0,-2.806 1.663,-5.138 4.472,-5.138 2.662,0 4.41,2.017 4.41,5.076 v 0.728 h -6.345 z"
   id="path97" />
		<path
   style="fill:#131309"
   d="m 143.004,236.103 c -0.333,-0.085 -0.624,-0.146 -1.165,-0.146 -1.767,0 -3.035,1.186 -3.035,3.12 0,1.788 1.165,3.118 3.078,3.118 0.394,0 0.831,-0.061 1.122,-0.144 z m -1.352,8.152 c -2.932,0 -5.346,-1.727 -5.346,-5.053 0,-3.059 2.268,-5.223 5.449,-5.223 0.498,0 0.893,0.021 1.247,0.085 v -4.743 h 2.497 v 14.142 c -0.934,0.48 -2.162,0.792 -3.847,0.792"
   id="path98" />
	</g>
	<rect
   id="XMLID_83_"
   x="152.028"
   y="230.341"
   style="fill:#131309"
   width="2.516"
   height="13.705" />
	<g
   id="g109">
		<path
   id="XMLID_82_"
   style="fill:#131309"
   d="m 163.093,244.047 v -5.783 c 0,-1.018 -0.187,-2.142 -1.455,-2.142 -0.874,0 -1.727,0.458 -2.497,1.042 v 6.883 h -2.497 v -9.838 h 2.121 l 0.272,1.061 c 1.061,-0.789 2.121,-1.29 3.454,-1.29 1.498,0 3.099,0.895 3.099,3.536 v 6.531 z" />
		<path
   id="XMLID_81_"
   style="fill:#131309"
   d="m 170.266,244.255 c -1.623,0 -2.787,-0.394 -3.64,-0.914 l 0.81,-1.831 c 0.73,0.498 1.665,0.874 2.643,0.874 1.018,0 1.684,-0.376 1.684,-1.042 0,-1.767 -4.533,-1.101 -4.533,-4.45 0,-1.706 1.351,-2.913 3.72,-2.913 1.228,0 2.124,0.189 2.894,0.501 v 2.079 c -0.855,-0.333 -1.748,-0.645 -2.787,-0.645 -0.874,0 -1.394,0.272 -1.394,0.853 0,1.561 4.616,1.042 4.616,4.432 0,2.203 -1.932,3.056 -4.013,3.056" />
		<path
   id="XMLID_80_"
   style="fill:#131309"
   d="m 178.959,244.255 c -1.748,0 -2.433,-0.978 -2.433,-2.308 v -5.865 h -1.748 v -1.873 h 1.748 v -2.268 l 2.497,-0.747 v 3.014 h 3.057 l -0.728,1.873 h -2.329 v 4.949 c 0,0.77 0.291,1.124 0.935,1.124 0.624,0 1.269,-0.291 1.642,-0.541 l 0.666,1.58 c -1.018,0.729 -2.351,1.062 -3.307,1.062" />
		<path
   style="fill:#131309"
   d="m 183.471,234.209 h 2.497 v 9.839 h -2.497 z m 1.248,-1.518 c -0.853,0 -1.54,-0.666 -1.54,-1.519 0,-0.81 0.687,-1.498 1.54,-1.498 0.874,0 1.559,0.666 1.559,1.498 0,0.831 -0.685,1.519 -1.559,1.519"
   id="path99" />
		<path
   id="XMLID_64_"
   style="fill:#131309"
   d="m 191.457,244.255 c -1.748,0 -2.433,-0.978 -2.433,-2.308 v -5.865 h -1.748 v -1.873 h 1.748 v -2.268 l 2.497,-0.747 v 3.014 h 3.057 l -0.728,1.873 h -2.329 v 4.949 c 0,0.77 0.291,1.124 0.935,1.124 0.624,0 1.269,-0.291 1.642,-0.541 l 0.666,1.58 c -1.018,0.729 -2.35,1.062 -3.307,1.062" />
		<path
   id="XMLID_63_"
   style="fill:#131309"
   d="m 202.458,244.047 -0.437,-0.978 c -0.685,0.624 -1.705,1.186 -3.016,1.186 -1.29,0 -3.326,-0.666 -3.326,-3.827 v -6.22 h 2.494 v 6.073 c 0,1.228 0.562,1.998 1.769,1.998 0.81,0 1.476,-0.437 1.892,-0.813 v -7.259 h 2.494 v 7.112 c 0,1.519 0.021,2.228 0.189,2.726 h -2.059 z" />
		<path
   id="XMLID_62_"
   style="fill:#131309"
   d="m 209.653,244.255 c -1.748,0 -2.433,-0.978 -2.433,-2.308 v -5.865 h -1.748 v -1.873 h 1.748 v -2.268 l 2.497,-0.747 v 3.014 h 3.057 l -0.728,1.873 h -2.329 v 4.949 c 0,0.77 0.291,1.124 0.935,1.124 0.624,0 1.269,-0.291 1.642,-0.541 l 0.666,1.58 c -1.018,0.729 -2.351,1.062 -3.307,1.062" />
		<path
   style="fill:#131309"
   d="m 217.846,235.852 c -1.205,0 -1.935,1.082 -1.935,2.164 h 3.827 c -0.04,-1.063 -0.624,-2.164 -1.892,-2.164 m -1.871,3.931 c 0.042,1.455 1.247,2.476 2.766,2.476 0.935,0 1.705,-0.229 2.558,-0.687 l 0.602,1.602 c -1.101,0.77 -2.412,1.082 -3.576,1.082 -3.432,0 -4.887,-2.497 -4.887,-5.138 0,-2.806 1.663,-5.138 4.472,-5.138 2.662,0 4.408,2.017 4.408,5.076 v 0.728 h -6.343 z"
   id="path100" />
		<path
   style="fill:#131309"
   d="m 232.674,235.955 c -1.583,0 -2.35,1.332 -2.35,3.163 0,1.913 0.893,3.203 2.412,3.203 1.559,0 2.35,-1.354 2.35,-3.203 0,-1.892 -0.874,-3.163 -2.412,-3.163 m 3.576,6.886 c -0.874,0.895 -2.081,1.415 -3.557,1.415 -1.372,0 -2.537,-0.437 -3.39,-1.228 -0.978,-0.914 -1.519,-2.265 -1.519,-3.848 0,-1.538 0.522,-2.87 1.436,-3.805 0.874,-0.874 2.06,-1.394 3.494,-1.394 1.519,0 2.745,0.52 3.619,1.415 0.853,0.914 1.311,2.204 1.311,3.702 0,1.496 -0.477,2.826 -1.394,3.743"
   id="path101" />
		<path
   id="XMLID_44_"
   style="fill:#131309"
   d="m 244.777,231.588 c -0.395,-0.165 -0.832,-0.269 -1.247,-0.269 -0.791,0 -1.167,0.477 -1.167,1.33 v 1.561 h 2.601 l -0.645,1.913 h -1.956 v 7.923 h -2.494 v -7.923 h -1.434 v -1.913 h 1.434 v -1.375 c 0,-2.91 2.1,-3.515 3.472,-3.515 0.52,0 1.29,0.125 1.935,0.437 z" />
		<path
   id="XMLID_43_"
   style="fill:#131309"
   d="m 37.294,264.494 v -8.154 c 0,-0.498 0,-0.935 0.042,-1.476 h -0.021 c -0.187,0.437 -0.605,1.082 -0.831,1.415 l -2.809,4.41 h -1.247 l -3.078,-4.472 c -0.272,-0.376 -0.562,-0.77 -0.834,-1.354 h -0.04 c 0.04,0.562 0.04,0.999 0.04,1.415 v 8.216 H 26 v -13.705 h 2.35 l 3.784,5.49 c 0.397,0.562 0.666,0.999 0.917,1.455 h 0.04 c 0.208,-0.435 0.458,-0.914 0.853,-1.516 l 3.496,-5.428 h 2.369 v 13.705 h -2.515 z" />
		<path
   style="fill:#131309"
   d="m 47.296,259.98 -1.415,0.043 c -1.351,0.042 -1.956,0.498 -1.956,1.33 0,0.813 0.562,1.375 1.602,1.375 0.874,0 1.436,-0.333 1.769,-0.626 z m 0.623,4.514 -0.416,-0.874 c -0.645,0.583 -1.54,1.082 -2.849,1.082 -1.809,0 -3.224,-1.226 -3.224,-3.161 0,-2.038 1.602,-3.142 4.117,-3.224 l 1.748,-0.061 v -0.25 c 0,-1.186 -0.832,-1.665 -1.873,-1.665 -1.08,0 -1.913,0.354 -2.537,0.73 l -0.81,-1.561 c 1.311,-0.872 2.537,-1.082 3.848,-1.082 2.433,0 3.909,0.999 3.909,3.579 v 3.888 c 0,1.415 0.042,2.142 0.189,2.601 h -2.102 z"
   id="path102" />
		<path
   id="XMLID_40_"
   style="fill:#131309"
   d="m 58.151,264.494 v -5.783 c 0,-1.018 -0.187,-2.142 -1.455,-2.142 -0.874,0 -1.727,0.458 -2.497,1.042 v 6.883 h -2.497 v -9.838 h 2.121 l 0.272,1.061 c 1.061,-0.789 2.121,-1.29 3.454,-1.29 1.498,0 3.099,0.895 3.099,3.536 v 6.531 z" />
		<path
   style="fill:#131309"
   d="m 67.862,259.98 -1.415,0.043 c -1.351,0.042 -1.956,0.498 -1.956,1.33 0,0.813 0.562,1.375 1.602,1.375 0.874,0 1.436,-0.333 1.769,-0.626 z m 0.623,4.514 -0.416,-0.874 c -0.645,0.583 -1.54,1.082 -2.849,1.082 -1.809,0 -3.224,-1.226 -3.224,-3.161 0,-2.038 1.602,-3.142 4.117,-3.224 l 1.748,-0.061 v -0.25 c 0,-1.186 -0.832,-1.665 -1.873,-1.665 -1.08,0 -1.913,0.354 -2.537,0.73 l -0.81,-1.561 c 1.311,-0.872 2.537,-1.082 3.848,-1.082 2.433,0 3.909,0.999 3.909,3.579 v 3.888 c 0,1.415 0.042,2.142 0.189,2.601 h -2.102 z"
   id="path103" />
		<path
   style="fill:#131309"
   d="m 76.055,256.299 c -0.917,0 -1.644,0.602 -1.644,1.727 0,1.039 0.645,1.913 1.748,1.913 0.978,0 1.746,-0.602 1.746,-1.809 -0.001,-0.916 -0.686,-1.831 -1.85,-1.831 m -1.727,8.507 c -0.333,0.229 -0.831,0.602 -0.831,1.29 0,0.831 1.039,1.54 2.745,1.54 1.436,0 2.497,-0.458 2.497,-1.228 -0.001,-1.269 -3.308,-1.144 -4.411,-1.602 m 1.706,4.596 c -2.953,0 -4.68,-1.33 -4.68,-2.913 0,-1.122 0.81,-1.913 1.809,-2.35 -0.477,-0.248 -0.666,-0.789 -0.666,-1.226 0,-0.602 0.416,-1.311 1.25,-1.831 -1.061,-0.541 -1.708,-1.767 -1.708,-3.016 0,-1.871 1.415,-3.68 4.077,-3.68 0.791,0 1.436,0.187 1.873,0.437 0.123,0.061 0.187,0.021 0.248,-0.064 0.583,-0.541 1.457,-0.935 3.099,-0.768 l -0.52,1.85 c -0.52,-0.104 -0.999,-0.165 -1.394,0 0.583,0.624 0.938,1.354 0.938,2.475 0,2.143 -1.831,3.536 -4.037,3.536 -0.52,0 -0.914,-0.043 -1.33,-0.187 -0.168,0.269 -0.25,0.477 -0.25,0.789 0,1.476 6.718,0.083 6.718,3.683 0.001,1.706 -1.726,3.265 -5.427,3.265"
   id="path104" />
		<path
   style="fill:#131309"
   d="m 86.01,256.3 c -1.205,0 -1.935,1.082 -1.935,2.164 h 3.827 C 87.862,257.401 87.279,256.3 86.01,256.3 m -1.87,3.931 c 0.042,1.455 1.247,2.476 2.766,2.476 0.935,0 1.705,-0.229 2.558,-0.687 l 0.602,1.602 c -1.101,0.77 -2.412,1.082 -3.576,1.082 -3.432,0 -4.887,-2.497 -4.887,-5.138 0,-2.809 1.663,-5.138 4.472,-5.138 2.662,0 4.41,2.017 4.41,5.076 v 0.728 H 84.14 Z"
   id="path105" />
		<path
   id="XMLID_32_"
   style="fill:#131309"
   d="m 104.457,264.494 v -5.969 c 0,-1.103 -0.208,-1.975 -1.434,-1.975 -0.895,0 -1.727,0.477 -2.372,0.997 0.021,0.083 0.021,0.229 0.021,0.354 v 6.593 h -2.497 v -5.927 c 0,-1.103 -0.208,-2.017 -1.415,-2.017 -0.893,0 -1.727,0.477 -2.372,0.997 v 6.947 h -2.494 v -9.838 h 2.1 l 0.25,1.082 c 1.082,-0.831 2.204,-1.311 3.35,-1.311 1.226,0 2.119,0.562 2.577,1.479 1.146,-0.978 2.435,-1.479 3.515,-1.479 1.687,0 3.246,0.813 3.246,3.392 v 6.675 z" />
		<path
   style="fill:#131309"
   d="m 112.712,256.3 c -1.205,0 -1.935,1.082 -1.935,2.164 h 3.827 c -0.041,-1.063 -0.624,-2.164 -1.892,-2.164 m -1.871,3.931 c 0.042,1.455 1.247,2.476 2.766,2.476 0.935,0 1.705,-0.229 2.558,-0.687 l 0.602,1.602 c -1.101,0.77 -2.412,1.082 -3.576,1.082 -3.432,0 -4.887,-2.497 -4.887,-5.138 0,-2.809 1.663,-5.138 4.472,-5.138 2.662,0 4.41,2.017 4.41,5.076 v 0.728 h -6.345 z"
   id="path106" />
		<path
   id="XMLID_16_"
   style="fill:#131309"
   d="m 125.044,264.494 v -5.783 c 0,-1.018 -0.187,-2.142 -1.455,-2.142 -0.874,0 -1.727,0.458 -2.497,1.042 v 6.883 h -2.497 v -9.838 h 2.121 l 0.272,1.061 c 1.061,-0.789 2.121,-1.29 3.454,-1.29 1.498,0 3.099,0.895 3.099,3.536 v 6.531 z" />
		<path
   id="XMLID_15_"
   style="fill:#131309"
   d="m 132.675,264.702 c -1.748,0 -2.433,-0.978 -2.433,-2.308 v -5.865 h -1.748 v -1.873 h 1.748 v -2.268 l 2.497,-0.747 v 3.014 h 3.057 l -0.728,1.873 h -2.329 v 4.949 c 0,0.77 0.291,1.124 0.935,1.124 0.624,0 1.269,-0.29 1.642,-0.541 l 0.666,1.58 c -1.018,0.729 -2.35,1.062 -3.307,1.062" />
		<path
   style="fill:#131309"
   d="m 145.939,255.863 c -0.248,-0.687 -0.413,-1.247 -0.52,-1.705 H 145.4 c -0.085,0.48 -0.272,1.018 -0.501,1.663 l -1.186,3.182 h 3.328 z m 3.246,8.631 -1.351,-3.432 h -4.887 l -1.268,3.432 h -2.476 l 5.324,-13.769 h 1.828 l 5.513,13.769 z"
   id="path107" />
		<path
   id="XMLID_12_"
   style="fill:#131309"
   d="m 156.459,264.702 c -3.203,0 -4.847,-2.308 -4.847,-5.074 0,-2.995 2.164,-5.202 5.095,-5.202 1.332,0 2.249,0.333 2.809,0.687 l -0.04,2.038 c -0.687,-0.52 -1.457,-0.813 -2.476,-0.813 -1.684,0 -2.891,1.332 -2.891,3.163 0,1.684 0.914,3.182 2.87,3.182 0.935,0 1.642,-0.291 2.329,-0.687 l 0.624,1.644 c -0.79,0.542 -2.122,1.062 -3.473,1.062" />
		<path
   id="XMLID_11_"
   style="fill:#131309"
   d="m 165.276,264.702 c -3.203,0 -4.847,-2.308 -4.847,-5.074 0,-2.995 2.164,-5.202 5.095,-5.202 1.332,0 2.249,0.333 2.809,0.687 l -0.04,2.038 c -0.687,-0.52 -1.457,-0.813 -2.476,-0.813 -1.684,0 -2.891,1.332 -2.891,3.163 0,1.684 0.914,3.182 2.87,3.182 0.935,0 1.642,-0.291 2.329,-0.687 l 0.624,1.644 c -0.789,0.542 -2.122,1.062 -3.473,1.062" />
		<path
   style="fill:#131309"
   d="m 174.136,256.402 c -1.583,0 -2.35,1.332 -2.35,3.163 0,1.913 0.893,3.203 2.412,3.203 1.559,0 2.35,-1.354 2.35,-3.203 0,-1.892 -0.874,-3.163 -2.412,-3.163 m 3.576,6.886 c -0.874,0.895 -2.079,1.415 -3.557,1.415 -1.372,0 -2.537,-0.437 -3.39,-1.228 -0.976,-0.914 -1.519,-2.268 -1.519,-3.848 0,-1.538 0.522,-2.87 1.436,-3.805 0.874,-0.874 2.06,-1.394 3.494,-1.394 1.519,0 2.745,0.52 3.619,1.415 0.853,0.914 1.311,2.204 1.311,3.702 0,1.497 -0.477,2.827 -1.394,3.743"
   id="path108" />
		<path
   id="XMLID_8_"
   style="fill:#131309"
   d="m 187.32,264.494 -0.437,-0.978 c -0.685,0.624 -1.705,1.186 -3.016,1.186 -1.29,0 -3.326,-0.666 -3.326,-3.827 v -6.22 h 2.494 v 6.073 c 0,1.228 0.562,1.998 1.769,1.998 0.81,0 1.476,-0.437 1.892,-0.813 v -7.259 h 2.494 v 7.115 c 0,1.516 0.021,2.225 0.189,2.723 h -2.059 z" />
		<path
   id="XMLID_7_"
   style="fill:#131309"
   d="m 197.634,264.494 v -5.783 c 0,-1.018 -0.187,-2.142 -1.455,-2.142 -0.874,0 -1.727,0.458 -2.497,1.042 v 6.883 h -2.497 v -9.838 h 2.121 l 0.272,1.061 c 1.061,-0.789 2.121,-1.29 3.454,-1.29 1.498,0 3.099,0.895 3.099,3.536 v 6.531 z" />
		<path
   id="XMLID_6_"
   style="fill:#131309"
   d="m 205.265,264.702 c -1.748,0 -2.433,-0.978 -2.433,-2.308 v -5.865 h -1.748 v -1.873 h 1.748 v -2.268 l 2.497,-0.747 v 3.014 h 3.057 l -0.728,1.873 h -2.329 v 4.949 c 0,0.77 0.291,1.124 0.935,1.124 0.624,0 1.269,-0.29 1.642,-0.541 l 0.666,1.58 c -1.018,0.729 -2.35,1.062 -3.307,1.062" />
		<path
   style="fill:#131309"
   d="m 214.894,259.98 -1.415,0.043 c -1.351,0.042 -1.956,0.498 -1.956,1.33 0,0.813 0.562,1.375 1.602,1.375 0.874,0 1.436,-0.333 1.769,-0.626 z m 0.624,4.514 -0.416,-0.874 c -0.645,0.583 -1.54,1.082 -2.849,1.082 -1.809,0 -3.224,-1.226 -3.224,-3.161 0,-2.038 1.602,-3.142 4.117,-3.224 l 1.748,-0.061 v -0.25 c 0,-1.186 -0.832,-1.665 -1.873,-1.665 -1.08,0 -1.913,0.354 -2.537,0.73 l -0.81,-1.561 c 1.311,-0.872 2.537,-1.082 3.848,-1.082 2.433,0 3.909,0.999 3.909,3.579 v 3.888 c 0,1.415 0.042,2.142 0.187,2.601 h -2.1 z"
   id="path109" />
		<path
   id="XMLID_3_"
   style="fill:#131309"
   d="m 225.75,264.494 v -5.783 c 0,-1.018 -0.187,-2.142 -1.455,-2.142 -0.874,0 -1.727,0.458 -2.497,1.042 v 6.883 h -2.497 v -9.838 h 2.121 l 0.272,1.061 c 1.061,-0.789 2.121,-1.29 3.454,-1.29 1.498,0 3.099,0.895 3.099,3.536 v 6.531 z" />
		<path
   id="XMLID_2_"
   style="fill:#131309"
   d="m 233.38,264.702 c -1.748,0 -2.433,-0.978 -2.433,-2.308 v -5.865 h -1.748 v -1.873 h 1.748 v -2.268 l 2.497,-0.747 v 3.014 h 3.057 l -0.728,1.873 h -2.329 v 4.949 c 0,0.77 0.291,1.124 0.935,1.124 0.624,0 1.269,-0.29 1.642,-0.541 l 0.666,1.58 c -1.018,0.729 -2.35,1.062 -3.307,1.062" />
		<path
   id="XMLID_1_"
   style="fill:#131309"
   d="m 240.471,264.702 c -1.623,0 -2.787,-0.394 -3.64,-0.914 l 0.81,-1.831 c 0.73,0.498 1.665,0.874 2.643,0.874 1.018,0 1.684,-0.376 1.684,-1.042 0,-1.767 -4.535,-1.101 -4.535,-4.45 0,-1.706 1.354,-2.913 3.723,-2.913 1.228,0 2.124,0.189 2.894,0.501 v 2.079 c -0.855,-0.333 -1.748,-0.645 -2.787,-0.645 -0.874,0 -1.394,0.272 -1.394,0.853 0,1.561 4.616,1.042 4.616,4.432 -0.001,2.203 -1.933,3.056 -4.014,3.056" />
	</g>
</g></svg>
